<svg xmlns="http://www.w3.org/2000/svg" xmlns:xlink="http://www.w3.org/1999/xlink" width="500" zoomAndPan="magnify" viewBox="0 0 375 374.999991" height="500" preserveAspectRatio="xMidYMid meet" version="1.0"><defs><filter x="0%" y="0%" width="100%" height="100%" id="bb33883d46"><feColorMatrix values="0 0 0 0 1 0 0 0 0 1 0 0 0 0 1 0 0 0 1 0" color-interpolation-filters="sRGB"/></filter><g/><clipPath id="6ae56715ce"><path d="M 182 53 L 259 53 L 259 96 L 182 96 Z M 182 53 " clip-rule="nonzero"/></clipPath><clipPath id="6412fe1a9a"><path d="M 84.875 24.089844 L 262.84375 0.0546875 L 289.707031 198.960938 L 111.738281 222.996094 Z M 84.875 24.089844 " clip-rule="nonzero"/></clipPath><clipPath id="16d9802135"><path d="M 84.875 24.089844 L 262.84375 0.0546875 L 289.707031 198.960938 L 111.738281 222.996094 Z M 84.875 24.089844 " clip-rule="nonzero"/></clipPath><mask id="4dc33ea75a"><g filter="url(#bb33883d46)"><rect x="-37.5" width="450" fill="#000000" y="-37.499999" height="449.999989" fill-opacity="0.17"/></g></mask><clipPath id="7b1bd7582c"><path d="M 4 1 L 73 1 L 73 42.519531 L 4 42.519531 Z M 4 1 " clip-rule="nonzero"/></clipPath><clipPath id="c80f220e4e"><path d="M -97.125 -28.910156 L 80.84375 -52.945312 L 107.707031 145.960938 L -70.261719 169.996094 Z M -97.125 -28.910156 " clip-rule="nonzero"/></clipPath><clipPath id="f1451cb333"><path d="M -97.125 -28.910156 L 80.84375 -52.945312 L 107.707031 145.960938 L -70.261719 169.996094 Z M -97.125 -28.910156 " clip-rule="nonzero"/></clipPath><clipPath id="bd1048a4a1"><rect x="0" width="77" y="0" height="43"/></clipPath><clipPath id="98b7ae93db"><path d="M 97 84 L 107 84 L 107 93 L 97 93 Z M 97 84 " clip-rule="nonzero"/></clipPath><clipPath id="52844daf8c"><path d="M 84.875 24.089844 L 262.84375 0.0546875 L 289.707031 198.960938 L 111.738281 222.996094 Z M 84.875 24.089844 " clip-rule="nonzero"/></clipPath><clipPath id="813231d547"><path d="M 84.875 24.089844 L 262.84375 0.0546875 L 289.707031 198.960938 L 111.738281 222.996094 Z M 84.875 24.089844 " clip-rule="nonzero"/></clipPath><clipPath id="4847a84c36"><path d="M 176 39 L 186 39 L 186 49 L 176 49 Z M 176 39 " clip-rule="nonzero"/></clipPath><clipPath id="4f1a870c00"><path d="M 84.875 24.089844 L 262.84375 0.0546875 L 289.707031 198.960938 L 111.738281 222.996094 Z M 84.875 24.089844 " clip-rule="nonzero"/></clipPath><clipPath id="aa2d364228"><path d="M 84.875 24.089844 L 262.84375 0.0546875 L 289.707031 198.960938 L 111.738281 222.996094 Z M 84.875 24.089844 " clip-rule="nonzero"/></clipPath><clipPath id="4724b4d73b"><path d="M 102 65 L 112 65 L 112 75 L 102 75 Z M 102 65 " clip-rule="nonzero"/></clipPath><clipPath id="b2ab83c296"><path d="M 84.875 24.089844 L 262.84375 0.0546875 L 289.707031 198.960938 L 111.738281 222.996094 Z M 84.875 24.089844 " clip-rule="nonzero"/></clipPath><clipPath id="b0e69c655e"><path d="M 84.875 24.089844 L 262.84375 0.0546875 L 289.707031 198.960938 L 111.738281 222.996094 Z M 84.875 24.089844 " clip-rule="nonzero"/></clipPath><clipPath id="c3bccfe971"><path d="M 268 101 L 278 101 L 278 111 L 268 111 Z M 268 101 " clip-rule="nonzero"/></clipPath><clipPath id="e982645131"><path d="M 84.875 24.089844 L 262.84375 0.0546875 L 289.707031 198.960938 L 111.738281 222.996094 Z M 84.875 24.089844 " clip-rule="nonzero"/></clipPath><clipPath id="3480c83a2f"><path d="M 84.875 24.089844 L 262.84375 0.0546875 L 289.707031 198.960938 L 111.738281 222.996094 Z M 84.875 24.089844 " clip-rule="nonzero"/></clipPath><clipPath id="2d17908590"><path d="M 138 16 L 148 16 L 148 26 L 138 26 Z M 138 16 " clip-rule="nonzero"/></clipPath><clipPath id="f82b67bef5"><path d="M 84.875 24.089844 L 262.84375 0.0546875 L 289.707031 198.960938 L 111.738281 222.996094 Z M 84.875 24.089844 " clip-rule="nonzero"/></clipPath><clipPath id="6f2563bdce"><path d="M 84.875 24.089844 L 262.84375 0.0546875 L 289.707031 198.960938 L 111.738281 222.996094 Z M 84.875 24.089844 " clip-rule="nonzero"/></clipPath><clipPath id="1a1e079d53"><path d="M 223 15 L 233 15 L 233 25 L 223 25 Z M 223 15 " clip-rule="nonzero"/></clipPath><clipPath id="ffca669d4e"><path d="M 84.875 24.089844 L 262.84375 0.0546875 L 289.707031 198.960938 L 111.738281 222.996094 Z M 84.875 24.089844 " clip-rule="nonzero"/></clipPath><clipPath id="7aeac1e72e"><path d="M 84.875 24.089844 L 262.84375 0.0546875 L 289.707031 198.960938 L 111.738281 222.996094 Z M 84.875 24.089844 " clip-rule="nonzero"/></clipPath><clipPath id="5b33f07a32"><path d="M 131 131 L 270 131 L 270 221 L 131 221 Z M 131 131 " clip-rule="nonzero"/></clipPath><clipPath id="d6c4d2a224"><path d="M 84.875 24.089844 L 262.84375 0.0546875 L 289.707031 198.960938 L 111.738281 222.996094 Z M 84.875 24.089844 " clip-rule="nonzero"/></clipPath><clipPath id="9dcc63fc30"><path d="M 84.875 24.089844 L 262.84375 0.0546875 L 289.707031 198.960938 L 111.738281 222.996094 Z M 84.875 24.089844 " clip-rule="nonzero"/></clipPath><clipPath id="0daecfff26"><path d="M 107 150 L 218 150 L 218 194 L 107 194 Z M 107 150 " clip-rule="nonzero"/></clipPath><clipPath id="97cb1fdad3"><path d="M 84.875 24.089844 L 262.84375 0.0546875 L 289.707031 198.960938 L 111.738281 222.996094 Z M 84.875 24.089844 " clip-rule="nonzero"/></clipPath><clipPath id="92d36af6d7"><path d="M 84.875 24.089844 L 262.84375 0.0546875 L 289.707031 198.960938 L 111.738281 222.996094 Z M 84.875 24.089844 " clip-rule="nonzero"/></clipPath><clipPath id="0667383196"><path d="M 107 153 L 162 153 L 162 194 L 107 194 Z M 107 153 " clip-rule="nonzero"/></clipPath><clipPath id="b6e9ae6ce8"><path d="M 84.875 24.089844 L 262.84375 0.0546875 L 289.707031 198.960938 L 111.738281 222.996094 Z M 84.875 24.089844 " clip-rule="nonzero"/></clipPath><clipPath id="d4e2c521cd"><path d="M 84.875 24.089844 L 262.84375 0.0546875 L 289.707031 198.960938 L 111.738281 222.996094 Z M 84.875 24.089844 " clip-rule="nonzero"/></clipPath><clipPath id="d3845b48c8"><path d="M 159 93 L 185 93 L 185 148 L 159 148 Z M 159 93 " clip-rule="nonzero"/></clipPath><clipPath id="b09bea2260"><path d="M 84.875 24.089844 L 262.84375 0.0546875 L 289.707031 198.960938 L 111.738281 222.996094 Z M 84.875 24.089844 " clip-rule="nonzero"/></clipPath><clipPath id="900c65b1f7"><path d="M 84.875 24.089844 L 262.84375 0.0546875 L 289.707031 198.960938 L 111.738281 222.996094 Z M 84.875 24.089844 " clip-rule="nonzero"/></clipPath><clipPath id="bff4fa1539"><path d="M 130 56 L 168 56 L 168 101 L 130 101 Z M 130 56 " clip-rule="nonzero"/></clipPath><clipPath id="129c47ed39"><path d="M 84.875 24.089844 L 262.84375 0.0546875 L 289.707031 198.960938 L 111.738281 222.996094 Z M 84.875 24.089844 " clip-rule="nonzero"/></clipPath><clipPath id="b2d7a9778d"><path d="M 84.875 24.089844 L 262.84375 0.0546875 L 289.707031 198.960938 L 111.738281 222.996094 Z M 84.875 24.089844 " clip-rule="nonzero"/></clipPath><clipPath id="16cb48035e"><path d="M 135 66 L 168 66 L 168 101 L 135 101 Z M 135 66 " clip-rule="nonzero"/></clipPath><clipPath id="c01270c4df"><path d="M 84.875 24.089844 L 262.84375 0.0546875 L 289.707031 198.960938 L 111.738281 222.996094 Z M 84.875 24.089844 " clip-rule="nonzero"/></clipPath><clipPath id="62b6d80606"><path d="M 84.875 24.089844 L 262.84375 0.0546875 L 289.707031 198.960938 L 111.738281 222.996094 Z M 84.875 24.089844 " clip-rule="nonzero"/></clipPath><clipPath id="2270a84a02"><path d="M 183 53 L 261 53 L 261 124 L 183 124 Z M 183 53 " clip-rule="nonzero"/></clipPath><clipPath id="92f3fc35b3"><path d="M 84.875 24.089844 L 262.84375 0.0546875 L 289.707031 198.960938 L 111.738281 222.996094 Z M 84.875 24.089844 " clip-rule="nonzero"/></clipPath><clipPath id="a6bad8b2db"><path d="M 84.875 24.089844 L 262.84375 0.0546875 L 289.707031 198.960938 L 111.738281 222.996094 Z M 84.875 24.089844 " clip-rule="nonzero"/></clipPath><clipPath id="7d6402d106"><path d="M 191 105 L 241 105 L 241 124 L 191 124 Z M 191 105 " clip-rule="nonzero"/></clipPath><clipPath id="c1910f7143"><path d="M 84.875 24.089844 L 262.84375 0.0546875 L 289.707031 198.960938 L 111.738281 222.996094 Z M 84.875 24.089844 " clip-rule="nonzero"/></clipPath><clipPath id="bcfd3a5ae5"><path d="M 84.875 24.089844 L 262.84375 0.0546875 L 289.707031 198.960938 L 111.738281 222.996094 Z M 84.875 24.089844 " clip-rule="nonzero"/></clipPath><clipPath id="82e622ea20"><path d="M 203 95 L 226 95 L 226 107 L 203 107 Z M 203 95 " clip-rule="nonzero"/></clipPath><clipPath id="67bbd081de"><path d="M 84.875 24.089844 L 262.84375 0.0546875 L 289.707031 198.960938 L 111.738281 222.996094 Z M 84.875 24.089844 " clip-rule="nonzero"/></clipPath><clipPath id="022fd90eae"><path d="M 84.875 24.089844 L 262.84375 0.0546875 L 289.707031 198.960938 L 111.738281 222.996094 Z M 84.875 24.089844 " clip-rule="nonzero"/></clipPath><clipPath id="9ab7fc19ff"><path d="M 213 73 L 221 73 L 221 91 L 213 91 Z M 213 73 " clip-rule="nonzero"/></clipPath><clipPath id="e53dc5ed64"><path d="M 84.875 24.089844 L 262.84375 0.0546875 L 289.707031 198.960938 L 111.738281 222.996094 Z M 84.875 24.089844 " clip-rule="nonzero"/></clipPath><clipPath id="5e9047257c"><path d="M 84.875 24.089844 L 262.84375 0.0546875 L 289.707031 198.960938 L 111.738281 222.996094 Z M 84.875 24.089844 " clip-rule="nonzero"/></clipPath><clipPath id="fe301fe88c"><path d="M 175 70 L 240 70 L 240 132 L 175 132 Z M 175 70 " clip-rule="nonzero"/></clipPath><clipPath id="93b277935f"><path d="M 84.875 24.089844 L 262.84375 0.0546875 L 289.707031 198.960938 L 111.738281 222.996094 Z M 84.875 24.089844 " clip-rule="nonzero"/></clipPath><clipPath id="59df9f5e37"><path d="M 84.875 24.089844 L 262.84375 0.0546875 L 289.707031 198.960938 L 111.738281 222.996094 Z M 84.875 24.089844 " clip-rule="nonzero"/></clipPath></defs><g clip-path="url(#6ae56715ce)"><g clip-path="url(#6412fe1a9a)"><g clip-path="url(#16d9802135)"><g mask="url(#4dc33ea75a)"><g transform="matrix(1, 0, 0, 1, 182, 53)"><g clip-path="url(#bd1048a4a1)"><g clip-path="url(#7b1bd7582c)"><g clip-path="url(#c80f220e4e)"><g clip-path="url(#f1451cb333)"><path fill="#9b59b6" d="M 72.332031 9.484375 C 72.332031 9.484375 32.667969 12.289062 18.472656 21.824219 C 9.851562 27.609375 5.808594 34.882812 4.882812 42.140625 C 4.882812 42.140625 3.503906 26.519531 14.550781 16.191406 C 25.597656 5.867188 65.40625 1.421875 72.082031 1.046875 Z M 72.332031 9.484375 " fill-opacity="1" fill-rule="nonzero"/></g></g></g></g></g></g></g></g></g><g clip-path="url(#98b7ae93db)"><g clip-path="url(#52844daf8c)"><g clip-path="url(#813231d547)"><path fill="#9b59b6" d="M 106.476562 87.964844 C 106.515625 88.25 106.527344 88.539062 106.507812 88.828125 C 106.488281 89.121094 106.445312 89.40625 106.371094 89.683594 C 106.296875 89.964844 106.195312 90.234375 106.066406 90.496094 C 105.941406 90.757812 105.789062 91.003906 105.613281 91.234375 C 105.4375 91.464844 105.238281 91.675781 105.023438 91.867188 C 104.804688 92.058594 104.570312 92.230469 104.320312 92.375 C 104.070312 92.519531 103.808594 92.640625 103.53125 92.734375 C 103.257812 92.828125 102.976562 92.894531 102.691406 92.933594 C 102.402344 92.972656 102.113281 92.984375 101.824219 92.964844 C 101.535156 92.945312 101.25 92.902344 100.96875 92.828125 C 100.6875 92.753906 100.417969 92.652344 100.15625 92.523438 C 99.898438 92.398438 99.652344 92.246094 99.421875 92.070312 C 99.191406 91.894531 98.976562 91.695312 98.785156 91.480469 C 98.59375 91.261719 98.425781 91.027344 98.28125 90.777344 C 98.132812 90.527344 98.011719 90.265625 97.917969 89.988281 C 97.824219 89.714844 97.757812 89.433594 97.71875 89.148438 C 97.679688 88.859375 97.671875 88.570312 97.6875 88.28125 C 97.707031 87.992188 97.753906 87.707031 97.828125 87.425781 C 97.902344 87.144531 98 86.875 98.128906 86.613281 C 98.257812 86.355469 98.410156 86.109375 98.585938 85.878906 C 98.761719 85.648438 98.957031 85.4375 99.175781 85.242188 C 99.390625 85.050781 99.625 84.882812 99.875 84.738281 C 100.128906 84.589844 100.390625 84.472656 100.664062 84.375 C 100.9375 84.28125 101.21875 84.214844 101.507812 84.175781 C 101.792969 84.136719 102.082031 84.128906 102.371094 84.144531 C 102.660156 84.164062 102.945312 84.210938 103.226562 84.285156 C 103.507812 84.359375 103.777344 84.460938 104.039062 84.585938 C 104.300781 84.714844 104.546875 84.867188 104.777344 85.042969 C 105.007812 85.21875 105.21875 85.414062 105.410156 85.632812 C 105.601562 85.847656 105.769531 86.082031 105.917969 86.332031 C 106.0625 86.585938 106.183594 86.847656 106.277344 87.121094 C 106.371094 87.394531 106.4375 87.675781 106.476562 87.964844 Z M 106.476562 87.964844 " fill-opacity="1" fill-rule="nonzero"/></g></g></g><g clip-path="url(#4847a84c36)"><g clip-path="url(#4f1a870c00)"><g clip-path="url(#aa2d364228)"><path fill="#6437a0" d="M 185.605469 43.070312 C 185.644531 43.359375 185.65625 43.648438 185.636719 43.9375 C 185.621094 44.226562 185.574219 44.511719 185.5 44.792969 C 185.425781 45.070312 185.324219 45.34375 185.195312 45.601562 C 185.070312 45.863281 184.917969 46.109375 184.742188 46.339844 C 184.566406 46.570312 184.371094 46.78125 184.152344 46.972656 C 183.933594 47.167969 183.699219 47.335938 183.449219 47.480469 C 183.199219 47.628906 182.9375 47.746094 182.664062 47.839844 C 182.386719 47.933594 182.105469 48 181.820312 48.039062 C 181.53125 48.078125 181.242188 48.089844 180.953125 48.070312 C 180.664062 48.054688 180.378906 48.007812 180.097656 47.933594 C 179.820312 47.859375 179.546875 47.757812 179.289062 47.632812 C 179.027344 47.503906 178.78125 47.351562 178.550781 47.175781 C 178.320312 47 178.109375 46.804688 177.917969 46.585938 C 177.722656 46.367188 177.554688 46.136719 177.410156 45.882812 C 177.261719 45.632812 177.144531 45.371094 177.050781 45.097656 C 176.953125 44.820312 176.886719 44.542969 176.851562 44.253906 C 176.8125 43.964844 176.800781 43.675781 176.820312 43.386719 C 176.835938 43.097656 176.882812 42.8125 176.957031 42.53125 C 177.03125 42.253906 177.132812 41.980469 177.257812 41.722656 C 177.386719 41.460938 177.539062 41.214844 177.714844 40.984375 C 177.890625 40.753906 178.085938 40.542969 178.304688 40.351562 C 178.519531 40.160156 178.753906 39.988281 179.007812 39.84375 C 179.257812 39.699219 179.519531 39.578125 179.792969 39.484375 C 180.070312 39.390625 180.347656 39.324219 180.636719 39.285156 C 180.925781 39.246094 181.210938 39.234375 181.503906 39.253906 C 181.792969 39.269531 182.078125 39.316406 182.355469 39.390625 C 182.636719 39.464844 182.910156 39.566406 183.167969 39.691406 C 183.429688 39.820312 183.675781 39.972656 183.90625 40.148438 C 184.136719 40.324219 184.347656 40.519531 184.539062 40.738281 C 184.730469 40.957031 184.902344 41.191406 185.046875 41.441406 C 185.191406 41.691406 185.3125 41.953125 185.40625 42.226562 C 185.5 42.503906 185.566406 42.785156 185.605469 43.070312 Z M 185.605469 43.070312 " fill-opacity="1" fill-rule="nonzero"/></g></g></g><g clip-path="url(#4724b4d73b)"><g clip-path="url(#b2ab83c296)"><g clip-path="url(#b0e69c655e)"><path fill="#6437a0" d="M 111.238281 69.8125 C 111.277344 70.101562 111.289062 70.386719 111.269531 70.679688 C 111.253906 70.96875 111.207031 71.253906 111.132812 71.53125 C 111.058594 71.8125 110.957031 72.082031 110.832031 72.34375 C 110.703125 72.605469 110.550781 72.851562 110.375 73.082031 C 110.199219 73.3125 110.003906 73.523438 109.785156 73.714844 C 109.566406 73.90625 109.332031 74.078125 109.082031 74.222656 C 108.832031 74.367188 108.570312 74.488281 108.296875 74.582031 C 108.019531 74.675781 107.738281 74.742188 107.453125 74.78125 C 107.164062 74.820312 106.875 74.832031 106.585938 74.8125 C 106.296875 74.796875 106.011719 74.75 105.730469 74.675781 C 105.453125 74.601562 105.179688 74.5 104.921875 74.371094 C 104.660156 74.246094 104.414062 74.09375 104.183594 73.917969 C 103.953125 73.742188 103.742188 73.546875 103.550781 73.328125 C 103.355469 73.109375 103.1875 72.875 103.042969 72.625 C 102.894531 72.375 102.777344 72.113281 102.683594 71.835938 C 102.589844 71.5625 102.523438 71.28125 102.484375 70.996094 C 102.445312 70.707031 102.433594 70.417969 102.453125 70.128906 C 102.46875 69.839844 102.515625 69.554688 102.589844 69.273438 C 102.664062 68.992188 102.765625 68.722656 102.890625 68.464844 C 103.019531 68.203125 103.171875 67.957031 103.347656 67.726562 C 103.523438 67.496094 103.71875 67.285156 103.9375 67.089844 C 104.15625 66.898438 104.386719 66.730469 104.640625 66.585938 C 104.890625 66.4375 105.152344 66.320312 105.425781 66.226562 C 105.703125 66.128906 105.980469 66.0625 106.269531 66.023438 C 106.558594 65.988281 106.847656 65.976562 107.136719 65.996094 C 107.425781 66.011719 107.710938 66.058594 107.992188 66.132812 C 108.269531 66.207031 108.542969 66.308594 108.800781 66.433594 C 109.0625 66.5625 109.308594 66.714844 109.539062 66.890625 C 109.769531 67.066406 109.980469 67.261719 110.171875 67.480469 C 110.363281 67.695312 110.535156 67.929688 110.679688 68.183594 C 110.824219 68.433594 110.945312 68.695312 111.039062 68.96875 C 111.132812 69.242188 111.199219 69.523438 111.238281 69.8125 Z M 111.238281 69.8125 " fill-opacity="1" fill-rule="nonzero"/></g></g></g><g clip-path="url(#c3bccfe971)"><g clip-path="url(#e982645131)"><g clip-path="url(#3480c83a2f)"><path fill="#6437a0" d="M 277.300781 105.019531 C 277.339844 105.304688 277.351562 105.59375 277.332031 105.882812 C 277.3125 106.171875 277.269531 106.457031 277.195312 106.738281 C 277.121094 107.019531 277.019531 107.289062 276.890625 107.550781 C 276.765625 107.8125 276.613281 108.058594 276.4375 108.289062 C 276.261719 108.519531 276.0625 108.730469 275.847656 108.921875 C 275.628906 109.113281 275.394531 109.28125 275.144531 109.429688 C 274.894531 109.574219 274.632812 109.695312 274.355469 109.789062 C 274.082031 109.882812 273.800781 109.949219 273.515625 109.988281 C 273.226562 110.027344 272.9375 110.039062 272.648438 110.019531 C 272.359375 110 272.074219 109.957031 271.792969 109.882812 C 271.511719 109.808594 271.242188 109.707031 270.980469 109.578125 C 270.722656 109.453125 270.476562 109.300781 270.246094 109.125 C 270.015625 108.949219 269.800781 108.75 269.609375 108.535156 C 269.417969 108.316406 269.25 108.082031 269.105469 107.832031 C 268.957031 107.582031 268.835938 107.316406 268.742188 107.042969 C 268.648438 106.769531 268.582031 106.488281 268.542969 106.199219 C 268.503906 105.914062 268.496094 105.625 268.511719 105.335938 C 268.53125 105.046875 268.578125 104.761719 268.652344 104.480469 C 268.726562 104.199219 268.824219 103.929688 268.953125 103.667969 C 269.082031 103.40625 269.234375 103.164062 269.410156 102.933594 C 269.585938 102.699219 269.78125 102.488281 270 102.296875 C 270.214844 102.105469 270.449219 101.9375 270.699219 101.789062 C 270.953125 101.644531 271.214844 101.523438 271.488281 101.429688 C 271.761719 101.335938 272.042969 101.269531 272.332031 101.230469 C 272.617188 101.191406 272.90625 101.183594 273.195312 101.199219 C 273.488281 101.21875 273.769531 101.265625 274.050781 101.339844 C 274.332031 101.414062 274.601562 101.511719 274.863281 101.640625 C 275.125 101.769531 275.371094 101.917969 275.601562 102.09375 C 275.832031 102.269531 276.042969 102.46875 276.234375 102.683594 C 276.425781 102.902344 276.59375 103.136719 276.742188 103.386719 C 276.886719 103.636719 277.007812 103.902344 277.101562 104.175781 C 277.195312 104.449219 277.261719 104.730469 277.300781 105.019531 Z M 277.300781 105.019531 " fill-opacity="1" fill-rule="nonzero"/></g></g></g><g clip-path="url(#2d17908590)"><g clip-path="url(#f82b67bef5)"><g clip-path="url(#6f2563bdce)"><path fill="#9b59b6" d="M 147.285156 20.117188 C 147.324219 20.40625 147.335938 20.695312 147.316406 20.984375 C 147.300781 21.273438 147.253906 21.558594 147.179688 21.839844 C 147.105469 22.121094 147.003906 22.390625 146.878906 22.652344 C 146.75 22.910156 146.597656 23.15625 146.421875 23.386719 C 146.246094 23.617188 146.050781 23.828125 145.832031 24.023438 C 145.613281 24.214844 145.382812 24.382812 145.128906 24.527344 C 144.878906 24.675781 144.617188 24.792969 144.34375 24.890625 C 144.066406 24.984375 143.789062 25.050781 143.5 25.089844 C 143.210938 25.128906 142.921875 25.136719 142.632812 25.121094 C 142.34375 25.101562 142.058594 25.054688 141.777344 24.980469 C 141.5 24.90625 141.226562 24.804688 140.96875 24.679688 C 140.707031 24.550781 140.460938 24.398438 140.230469 24.222656 C 140 24.046875 139.789062 23.851562 139.597656 23.632812 C 139.40625 23.417969 139.234375 23.183594 139.089844 22.933594 C 138.945312 22.679688 138.824219 22.417969 138.730469 22.144531 C 138.636719 21.871094 138.570312 21.589844 138.53125 21.300781 C 138.492188 21.015625 138.480469 20.726562 138.5 20.4375 C 138.515625 20.144531 138.5625 19.859375 138.636719 19.582031 C 138.710938 19.300781 138.8125 19.03125 138.9375 18.769531 C 139.066406 18.507812 139.21875 18.261719 139.394531 18.03125 C 139.570312 17.800781 139.765625 17.589844 139.984375 17.398438 C 140.203125 17.207031 140.4375 17.035156 140.6875 16.890625 C 140.9375 16.746094 141.199219 16.625 141.472656 16.53125 C 141.75 16.4375 142.03125 16.371094 142.316406 16.332031 C 142.605469 16.292969 142.894531 16.28125 143.183594 16.300781 C 143.472656 16.320312 143.757812 16.363281 144.039062 16.4375 C 144.316406 16.511719 144.589844 16.613281 144.847656 16.742188 C 145.109375 16.867188 145.355469 17.019531 145.585938 17.195312 C 145.816406 17.371094 146.027344 17.570312 146.21875 17.785156 C 146.414062 18.003906 146.582031 18.238281 146.726562 18.488281 C 146.875 18.738281 146.992188 19 147.085938 19.277344 C 147.179688 19.550781 147.246094 19.832031 147.285156 20.117188 Z M 147.285156 20.117188 " fill-opacity="1" fill-rule="nonzero"/></g></g></g><g clip-path="url(#1a1e079d53)"><g clip-path="url(#ffca669d4e)"><g clip-path="url(#7aeac1e72e)"><path fill="#9b59b6" d="M 232.460938 19.679688 C 232.5 19.96875 232.511719 20.257812 232.492188 20.546875 C 232.472656 20.835938 232.429688 21.121094 232.355469 21.402344 C 232.28125 21.679688 232.179688 21.953125 232.050781 22.210938 C 231.925781 22.472656 231.773438 22.71875 231.597656 22.949219 C 231.421875 23.179688 231.222656 23.390625 231.007812 23.582031 C 230.789062 23.777344 230.554688 23.945312 230.304688 24.089844 C 230.054688 24.238281 229.789062 24.355469 229.515625 24.449219 C 229.242188 24.542969 228.960938 24.609375 228.671875 24.648438 C 228.386719 24.6875 228.097656 24.699219 227.808594 24.679688 C 227.519531 24.664062 227.234375 24.617188 226.953125 24.542969 C 226.671875 24.46875 226.402344 24.367188 226.140625 24.242188 C 225.882812 24.113281 225.636719 23.960938 225.40625 23.785156 C 225.175781 23.609375 224.960938 23.414062 224.769531 23.195312 C 224.578125 22.976562 224.410156 22.746094 224.261719 22.492188 C 224.117188 22.242188 223.996094 21.980469 223.902344 21.707031 C 223.808594 21.429688 223.742188 21.152344 223.703125 20.863281 C 223.664062 20.574219 223.65625 20.285156 223.671875 19.996094 C 223.691406 19.707031 223.738281 19.421875 223.8125 19.140625 C 223.886719 18.863281 223.984375 18.589844 224.113281 18.332031 C 224.242188 18.070312 224.390625 17.824219 224.566406 17.59375 C 224.746094 17.363281 224.941406 17.152344 225.160156 16.960938 C 225.375 16.769531 225.609375 16.597656 225.859375 16.453125 C 226.113281 16.308594 226.375 16.1875 226.648438 16.09375 C 226.921875 16 227.203125 15.933594 227.492188 15.894531 C 227.777344 15.855469 228.066406 15.84375 228.355469 15.863281 C 228.644531 15.878906 228.929688 15.925781 229.210938 16 C 229.492188 16.074219 229.761719 16.175781 230.023438 16.300781 C 230.285156 16.429688 230.53125 16.582031 230.761719 16.757812 C 230.992188 16.933594 231.203125 17.128906 231.394531 17.347656 C 231.585938 17.566406 231.753906 17.800781 231.902344 18.050781 C 232.046875 18.300781 232.167969 18.5625 232.261719 18.835938 C 232.355469 19.113281 232.421875 19.394531 232.460938 19.679688 Z M 232.460938 19.679688 " fill-opacity="1" fill-rule="nonzero"/></g></g></g><g clip-path="url(#5b33f07a32)"><g clip-path="url(#d6c4d2a224)"><g clip-path="url(#9dcc63fc30)"><path fill="#6437a0" d="M 134.644531 220.015625 C 134.007812 220.101562 133.339844 219.949219 132.761719 219.578125 C 131.515625 218.734375 131.164062 217.039062 132.003906 215.75 C 139.65625 204.300781 147.039062 201.035156 147.378906 200.867188 C 147.566406 200.761719 147.804688 200.726562 148.039062 200.65625 L 203.089844 191.722656 L 205.550781 190.742188 L 260.53125 151.015625 C 264.484375 148.171875 265.660156 143.066406 263.171875 139.632812 C 260.828125 136.382812 255.847656 136.125 251.820312 139.019531 L 225.027344 157.59375 C 223.765625 158.453125 222.0625 158.15625 221.203125 156.894531 C 220.34375 155.632812 220.640625 153.929688 221.902344 153.070312 L 248.617188 134.507812 C 255.078125 129.824219 263.414062 130.644531 267.59375 136.363281 C 271.828125 142.234375 270.105469 150.773438 263.71875 155.40625 L 208.445312 195.375 C 208.261719 195.523438 208.074219 195.628906 207.839844 195.699219 L 204.804688 196.921875 C 204.609375 196.988281 204.417969 197.054688 204.21875 197.082031 L 149.25 206.003906 C 148.039062 206.65625 142.441406 209.921875 136.539062 218.746094 C 136.113281 219.492188 135.402344 219.914062 134.644531 220.015625 Z M 134.644531 220.015625 " fill-opacity="1" fill-rule="nonzero"/></g></g></g><g clip-path="url(#0daecfff26)"><g clip-path="url(#97cb1fdad3)"><g clip-path="url(#92d36af6d7)"><path fill="#9b59b6" d="M 110.957031 193.464844 C 110.242188 193.5625 109.445312 193.386719 108.847656 192.859375 C 107.664062 191.882812 107.511719 190.160156 108.488281 188.976562 L 130.835938 162.085938 C 142.882812 151.378906 158.878906 153.960938 159.542969 154.074219 C 166.339844 154.898438 179.175781 153.613281 179.296875 153.597656 L 201.027344 150.660156 C 209.027344 149.582031 216.347656 154.550781 217.3125 161.714844 C 218.289062 168.917969 212.542969 175.613281 204.542969 176.691406 L 174.371094 180.765625 C 172.859375 180.972656 171.5 179.898438 171.300781 178.425781 C 171.101562 176.953125 172.167969 175.550781 173.640625 175.355469 L 203.8125 171.277344 C 208.828125 170.601562 212.425781 166.628906 211.859375 162.449219 C 211.296875 158.269531 206.773438 155.398438 201.757812 156.074219 L 179.945312 159.019531 C 179.308594 159.105469 166.273438 160.421875 158.726562 159.453125 C 158.476562 159.40625 144.644531 157.222656 134.605469 165.996094 L 112.679688 192.421875 C 112.277344 193.042969 111.632812 193.375 110.957031 193.464844 Z M 110.957031 193.464844 " fill-opacity="1" fill-rule="nonzero"/></g></g></g><g clip-path="url(#0667383196)"><g clip-path="url(#b6e9ae6ce8)"><g clip-path="url(#d4e2c521cd)"><path fill="#6437a0" d="M 110.957031 193.464844 C 110.242188 193.5625 109.445312 193.386719 108.847656 192.859375 C 107.664062 191.882812 107.511719 190.160156 108.488281 188.976562 L 130.546875 162.367188 C 130.65625 162.273438 130.726562 162.183594 130.835938 162.085938 C 142.882812 151.378906 158.878906 153.960938 159.542969 154.074219 C 161.035156 154.320312 162.039062 155.765625 161.796875 157.257812 C 161.550781 158.75 160.105469 159.753906 158.613281 159.507812 C 158.488281 159.484375 144.65625 157.300781 134.617188 166.074219 L 112.691406 192.5 C 112.277344 193.042969 111.632812 193.375 110.957031 193.464844 Z M 110.957031 193.464844 " fill-opacity="1" fill-rule="nonzero"/></g></g></g><g clip-path="url(#d3845b48c8)"><g clip-path="url(#b09bea2260)"><g clip-path="url(#900c65b1f7)"><path fill="#6437a0" d="M 182.328125 147.230469 C 180.933594 147.417969 179.59375 146.503906 179.28125 145.085938 C 173.601562 119.550781 165.824219 105.160156 160.296875 97.554688 C 159.402344 96.339844 159.695312 94.597656 160.914062 93.703125 C 162.128906 92.808594 163.871094 93.101562 164.765625 94.316406 C 170.589844 102.328125 178.75 117.4375 184.628906 143.878906 C 184.953125 145.375 184.015625 146.839844 182.558594 147.15625 C 182.445312 147.210938 182.40625 147.21875 182.328125 147.230469 Z M 182.328125 147.230469 " fill-opacity="1" fill-rule="nonzero"/></g></g></g><g clip-path="url(#bff4fa1539)"><g clip-path="url(#129c47ed39)"><g clip-path="url(#b2d7a9778d)"><path fill="#9b59b6" d="M 158.667969 100.492188 C 157.074219 100.707031 155.320312 100.621094 153.484375 100.21875 C 146.21875 98.648438 138.925781 92.660156 135.339844 85.324219 C 128.433594 71.097656 130.269531 59.785156 130.367188 59.285156 L 130.828125 56.710938 L 133.421875 57.007812 C 133.917969 57.0625 146.121094 58.617188 157.414062 67.507812 C 164.445312 73.042969 167.671875 81.929688 167.753906 88.242188 C 167.8125 92.570312 166.464844 96.113281 163.984375 98.152344 C 162.542969 99.480469 160.699219 100.21875 158.667969 100.492188 Z M 135.621094 63.074219 C 135.574219 66.929688 136.128906 74.355469 140.328125 82.945312 C 143.144531 88.769531 149.03125 93.648438 154.667969 94.871094 C 156.417969 95.242188 158.832031 95.402344 160.507812 94 C 161.671875 93.035156 162.332031 91 162.265625 88.414062 C 162.21875 83.558594 159.613281 76.289062 154.035156 71.894531 C 147.097656 66.429688 139.601562 64.035156 135.621094 63.074219 Z M 135.621094 63.074219 " fill-opacity="1" fill-rule="nonzero"/></g></g></g><g clip-path="url(#16cb48035e)"><g clip-path="url(#c01270c4df)"><g clip-path="url(#62b6d80606)"><path fill="#6437a0" d="M 158.667969 100.492188 C 157.074219 100.707031 155.320312 100.621094 153.484375 100.21875 C 146.21875 98.648438 138.925781 92.660156 135.339844 85.324219 C 134.671875 83.953125 135.257812 82.292969 136.628906 81.664062 C 138 80.992188 139.660156 81.578125 140.289062 82.953125 C 143.101562 88.773438 148.988281 93.652344 154.625 94.875 C 156.378906 95.25 158.792969 95.410156 160.46875 94.007812 C 161.632812 93.039062 162.289062 91.003906 162.265625 88.414062 C 162.21875 83.558594 159.613281 76.289062 154.035156 71.894531 C 152.855469 70.960938 152.625 69.25 153.59375 68.023438 C 154.527344 66.84375 156.242188 66.613281 157.464844 67.582031 C 164.496094 73.117188 167.722656 82.003906 167.804688 88.316406 C 167.863281 92.644531 166.515625 96.1875 164.035156 98.226562 C 162.542969 99.480469 160.699219 100.21875 158.667969 100.492188 Z M 158.667969 100.492188 " fill-opacity="1" fill-rule="nonzero"/></g></g></g><g clip-path="url(#2270a84a02)"><g clip-path="url(#92f3fc35b3)"><g clip-path="url(#a6bad8b2db)"><path fill="#6437a0" d="M 218.800781 122.890625 C 217.324219 123.089844 215.917969 123.15625 214.65625 123.125 C 205.875 122.933594 197 118.132812 190.917969 110.320312 C 184.992188 102.730469 182.488281 92.898438 184.207031 84.03125 C 185.398438 77.832031 189.234375 69.046875 200.738281 62.386719 C 216.257812 53.359375 256.066406 53.128906 257.765625 53.105469 C 258.578125 53.117188 259.355469 53.457031 259.886719 54.113281 C 260.417969 54.730469 260.617188 55.597656 260.480469 56.386719 C 260.164062 57.96875 252.722656 95.570312 240.203125 110.027344 C 232.535156 118.96875 224.847656 122.074219 218.800781 122.890625 Z M 227.425781 60.726562 C 218.152344 61.980469 208.980469 63.988281 203.53125 67.15625 C 195.824219 71.601562 191.03125 77.84375 189.625 85.125 C 188.222656 92.449219 190.335938 100.59375 195.289062 106.976562 C 200.386719 113.5 207.695312 117.5 214.851562 117.667969 C 222.292969 117.839844 229.632812 113.96875 236.078125 106.492188 C 245.574219 95.480469 252.3125 68.230469 254.390625 58.707031 C 249.015625 58.824219 238.132812 59.28125 227.425781 60.726562 Z M 238.105469 108.285156 Z M 238.105469 108.285156 " fill-opacity="1" fill-rule="nonzero"/></g></g></g><g clip-path="url(#7d6402d106)"><g clip-path="url(#c1910f7143)"><g clip-path="url(#bcfd3a5ae5)"><path fill="#9b59b6" d="M 218.839844 122.882812 C 217.683594 123.039062 216.558594 123.109375 215.382812 123.109375 C 206.914062 123.117188 198.453125 118.992188 192.167969 111.773438 C 191.160156 110.613281 191.292969 108.894531 192.414062 107.890625 C 193.574219 106.882812 195.296875 107.015625 196.296875 108.136719 C 201.53125 114.15625 208.476562 117.597656 215.363281 117.558594 C 222.695312 117.539062 229.644531 113.765625 236.0625 106.371094 C 237.042969 105.226562 238.808594 105.109375 239.957031 106.089844 C 241.101562 107.070312 241.21875 108.835938 240.238281 109.984375 C 233.796875 117.5 226.441406 121.855469 218.839844 122.882812 Z M 218.839844 122.882812 " fill-opacity="1" fill-rule="nonzero"/></g></g></g><g clip-path="url(#82e622ea20)"><g clip-path="url(#67bbd081de)"><g clip-path="url(#022fd90eae)"><path fill="#6437a0" d="M 223.050781 106.953125 C 222.652344 107.007812 222.203125 106.988281 221.777344 106.84375 L 205.667969 101.277344 C 204.222656 100.785156 203.484375 99.222656 203.976562 97.777344 C 204.472656 96.332031 206.035156 95.59375 207.480469 96.089844 L 223.589844 101.652344 C 225.035156 102.148438 225.773438 103.710938 225.28125 105.152344 C 224.929688 106.171875 224.046875 106.820312 223.050781 106.953125 Z M 223.050781 106.953125 " fill-opacity="1" fill-rule="nonzero"/></g></g></g><g clip-path="url(#9ab7fc19ff)"><g clip-path="url(#e53dc5ed64)"><g clip-path="url(#5e9047257c)"><path fill="#9b59b6" d="M 218.21875 90.382812 C 218.179688 90.386719 218.140625 90.394531 218.097656 90.398438 C 216.582031 90.5625 215.253906 89.445312 215.089844 87.925781 L 213.980469 76.40625 C 213.816406 74.886719 214.933594 73.558594 216.453125 73.394531 C 217.96875 73.230469 219.296875 74.347656 219.460938 75.867188 L 220.570312 87.390625 C 220.730469 88.867188 219.652344 90.1875 218.21875 90.382812 Z M 218.21875 90.382812 " fill-opacity="1" fill-rule="nonzero"/></g></g></g><g clip-path="url(#fe301fe88c)"><g clip-path="url(#93b277935f)"><g clip-path="url(#59df9f5e37)"><path fill="#6437a0" d="M 178.9375 131.433594 C 178.539062 131.488281 178.089844 131.46875 177.664062 131.320312 C 176.222656 130.828125 175.484375 129.265625 175.976562 127.820312 C 179.21875 118.507812 189.105469 108.902344 189.535156 108.480469 C 189.570312 108.4375 189.644531 108.386719 189.679688 108.339844 L 234.78125 71.082031 C 235.949219 70.113281 237.675781 70.285156 238.640625 71.453125 C 239.609375 72.617188 239.4375 74.34375 238.273438 75.3125 L 193.242188 112.519531 C 192.382812 113.367188 183.816406 121.941406 181.125 129.640625 C 180.773438 130.617188 179.890625 131.304688 178.9375 131.433594 Z M 178.9375 131.433594 " fill-opacity="1" fill-rule="nonzero"/></g></g></g><g fill="#6437a0" fill-opacity="1"><g transform="translate(28.595826, 289.824688)"><g><path d="M 65.359375 -52.3125 C 66.722656 -49.40625 67.046875 -46.269531 66.328125 -42.90625 C 65.617188 -39.550781 63.972656 -36.785156 61.390625 -34.609375 C 60.097656 -33.609375 58.921875 -33.015625 57.859375 -32.828125 C 56.804688 -32.640625 55.816406 -33.316406 54.890625 -34.859375 C 54.710938 -35.335938 54.925781 -35.769531 55.53125 -36.15625 C 56.144531 -36.539062 56.847656 -37.144531 57.640625 -37.96875 C 58.765625 -39.132812 59.625 -40.171875 60.21875 -41.078125 C 60.820312 -41.992188 61.226562 -43.347656 61.4375 -45.140625 C 61.582031 -46.117188 61.601562 -47.078125 61.5 -48.015625 C 61.40625 -48.960938 61.101562 -49.921875 60.59375 -50.890625 C 60.175781 -51.773438 59.492188 -52.472656 58.546875 -52.984375 C 57.597656 -53.503906 56.789062 -53.800781 56.125 -53.875 L 53.921875 -54.078125 C 53.597656 -53.816406 53.128906 -53.703125 52.515625 -53.734375 C 51.898438 -53.765625 51.59375 -53.78125 51.59375 -53.78125 C 51.269531 -53.695312 50.492188 -53.519531 49.265625 -53.25 C 48.046875 -52.976562 46.890625 -52.6875 45.796875 -52.375 C 44.703125 -52.070312 44.070312 -51.757812 43.90625 -51.4375 C 43.664062 -51.269531 43.460938 -51.125 43.296875 -51 C 43.140625 -50.875 42.941406 -50.726562 42.703125 -50.5625 C 42.222656 -50.226562 41.660156 -50.054688 41.015625 -50.046875 C 40.441406 -50.035156 40.039062 -49.613281 39.8125 -48.78125 L 36.90625 -46.53125 C 36.019531 -45.695312 34.445312 -44.546875 32.1875 -43.078125 C 29.925781 -41.609375 28.003906 -39.46875 26.421875 -36.65625 C 24.921875 -33.851562 24.703125 -31.234375 25.765625 -28.796875 C 26.835938 -26.367188 28.410156 -24.359375 30.484375 -22.765625 C 31.554688 -22.035156 32.648438 -21.375 33.765625 -20.78125 C 34.878906 -20.195312 35.972656 -19.585938 37.046875 -18.953125 C 37.460938 -18.640625 37.894531 -18.382812 38.34375 -18.1875 C 38.800781 -17.988281 39.234375 -17.769531 39.640625 -17.53125 C 41.941406 -16.425781 44.144531 -15.195312 46.25 -13.84375 C 48.363281 -12.5 50.378906 -11.023438 52.296875 -9.421875 C 55.109375 -7.023438 57.328125 -4.003906 58.953125 -0.359375 C 59.554688 1.179688 59.742188 2.609375 59.515625 3.921875 C 59.296875 5.234375 58.789062 6.472656 58 7.640625 C 56.800781 9.378906 55.070312 10.984375 52.8125 12.453125 C 50.550781 13.921875 48.0625 15.171875 45.34375 16.203125 C 42.632812 17.242188 39.976562 17.988281 37.375 18.4375 C 34.757812 18.894531 32.125 19.125 29.46875 19.125 C 26.8125 19.132812 24.171875 18.960938 21.546875 18.609375 C 17.046875 17.878906 13.421875 16.085938 10.671875 13.234375 C 7.921875 10.378906 6.421875 6.832031 6.171875 2.59375 C 6.160156 1.851562 6.53125 0.882812 7.28125 -0.3125 C 8.039062 -1.519531 8.9375 -2.742188 9.96875 -3.984375 C 11.007812 -5.234375 11.953125 -6.296875 12.796875 -7.171875 C 13.640625 -8.046875 14.144531 -8.519531 14.3125 -8.59375 C 15.28125 -9.113281 16.257812 -9.175781 17.25 -8.78125 C 18.238281 -8.382812 18.941406 -7.84375 19.359375 -7.15625 C 19.785156 -6.476562 19.632812 -6.003906 18.90625 -5.734375 C 16.875 -5.128906 15.171875 -4.140625 13.796875 -2.765625 C 12.429688 -1.390625 11.691406 0.476562 11.578125 2.84375 C 11.535156 4.644531 11.878906 6.703125 12.609375 9.015625 C 13.347656 11.335938 14.585938 13.015625 16.328125 14.046875 C 18.710938 15.390625 21.140625 16.117188 23.609375 16.234375 C 24.992188 16.296875 26.398438 16.269531 27.828125 16.15625 C 29.253906 16.050781 30.660156 15.863281 32.046875 15.59375 C 35.390625 15.03125 38.554688 14.03125 41.546875 12.59375 C 44.535156 11.15625 47.082031 9.71875 49.1875 8.28125 C 50.882812 7.1875 52.328125 5.648438 53.515625 3.671875 C 54.148438 2.597656 54.554688 1.484375 54.734375 0.328125 C 54.921875 -0.816406 54.675781 -2.035156 54 -3.328125 C 53.488281 -4.460938 52.816406 -5.488281 51.984375 -6.40625 C 51.148438 -7.332031 50.269531 -8.203125 49.34375 -9.015625 C 47.769531 -10.453125 46.035156 -11.742188 44.140625 -12.890625 C 42.242188 -14.035156 40.304688 -15.046875 38.328125 -15.921875 C 37.015625 -16.546875 35.710938 -17.253906 34.421875 -18.046875 C 33.140625 -18.835938 31.878906 -19.632812 30.640625 -20.4375 C 29.566406 -21.070312 28.097656 -22.144531 26.234375 -23.65625 C 24.367188 -25.175781 22.960938 -26.953125 22.015625 -28.984375 C 19.972656 -33.359375 20.1875 -37.445312 22.65625 -41.25 C 23.289062 -42.320312 24.007812 -43.289062 24.8125 -44.15625 C 25.613281 -45.03125 26.492188 -45.847656 27.453125 -46.609375 C 28.753906 -47.609375 30.007812 -48.546875 31.21875 -49.421875 C 32.425781 -50.304688 33.71875 -51.085938 35.09375 -51.765625 C 38.664062 -53.460938 41.5625 -54.738281 43.78125 -55.59375 C 46.007812 -56.457031 48.382812 -57.039062 50.90625 -57.34375 C 52.789062 -57.53125 54.898438 -57.519531 57.234375 -57.3125 C 59.566406 -57.113281 61.476562 -56.457031 62.96875 -55.34375 C 63.957031 -54.625 64.753906 -53.613281 65.359375 -52.3125 Z M 65.359375 -52.3125 "/></g></g></g><g fill="#6437a0" fill-opacity="1"><g transform="translate(97.466498, 288.549882)"><g><path d="M 2.75 2.15625 C 2.40625 2 2.128906 1.796875 1.921875 1.546875 C 1.710938 1.304688 1.363281 1.070312 0.875 0.84375 C 0.613281 0.1875 0.375 -0.441406 0.15625 -1.046875 C -0.0507812 -1.660156 -0.0820312 -2.375 0.0625 -3.1875 L 0.953125 -8.234375 C 1.097656 -8.890625 1.25 -9.566406 1.40625 -10.265625 C 1.5625 -10.960938 1.628906 -11.640625 1.609375 -12.296875 C 1.753906 -13.191406 1.941406 -14.050781 2.171875 -14.875 C 2.398438 -15.695312 2.550781 -16.515625 2.625 -17.328125 C 2.769531 -18.234375 2.914062 -19.09375 3.0625 -19.90625 C 3.207031 -20.726562 3.316406 -21.550781 3.390625 -22.375 C 3.460938 -22.539062 3.5 -22.707031 3.5 -22.875 C 3.5 -23.039062 3.539062 -23.164062 3.625 -23.25 C 3.851562 -23.65625 4.210938 -23.863281 4.703125 -23.875 C 6.003906 -24.382812 6.914062 -23.742188 7.4375 -21.953125 C 7.863281 -20.984375 8.007812 -19.925781 7.875 -18.78125 C 7.875 -18.625 7.832031 -18.441406 7.75 -18.234375 C 7.675781 -18.023438 7.644531 -17.753906 7.65625 -17.421875 C 7.8125 -17.679688 7.988281 -17.910156 8.1875 -18.109375 C 8.382812 -18.316406 8.523438 -18.507812 8.609375 -18.6875 C 8.921875 -19.257812 9.257812 -19.726562 9.625 -20.09375 C 9.988281 -20.46875 10.367188 -20.863281 10.765625 -21.28125 C 11.328125 -22.113281 11.925781 -22.800781 12.5625 -23.34375 C 13.207031 -23.894531 13.851562 -24.378906 14.5 -24.796875 C 16.03125 -26.046875 17.625 -26.195312 19.28125 -25.25 C 19.601562 -25.007812 19.910156 -24.769531 20.203125 -24.53125 C 20.492188 -24.289062 20.765625 -24.046875 21.015625 -23.796875 C 21.265625 -23.566406 21.429688 -23.453125 21.515625 -23.453125 C 21.921875 -23.210938 22.253906 -22.726562 22.515625 -22 L 22.40625 -21.375 C 22.40625 -21.375 22.222656 -21.351562 21.859375 -21.3125 C 21.492188 -21.269531 20.898438 -21.398438 20.078125 -21.703125 C 19.753906 -21.703125 19.40625 -21.695312 19.03125 -21.6875 C 18.664062 -21.675781 18.28125 -21.507812 17.875 -21.1875 C 17.632812 -20.84375 17.351562 -20.585938 17.03125 -20.421875 C 16.707031 -20.253906 16.34375 -20.039062 15.9375 -19.78125 C 15.78125 -19.707031 15.640625 -19.566406 15.515625 -19.359375 C 15.398438 -19.148438 15.257812 -18.960938 15.09375 -18.796875 C 14.78125 -18.460938 14.441406 -18.144531 14.078125 -17.84375 C 13.710938 -17.550781 13.367188 -17.242188 13.046875 -16.921875 L 10.78125 -13.8125 C 10.382812 -13.226562 9.945312 -12.601562 9.46875 -11.9375 C 8.988281 -11.28125 8.550781 -10.582031 8.15625 -9.84375 C 7.84375 -9.007812 7.46875 -8.222656 7.03125 -7.484375 C 6.601562 -6.742188 6.191406 -6 5.796875 -5.25 C 5.554688 -4.6875 5.378906 -4.113281 5.265625 -3.53125 C 5.148438 -2.957031 5.019531 -2.382812 4.875 -1.8125 C 4.800781 -1.40625 4.742188 -0.972656 4.703125 -0.515625 C 4.671875 -0.0664062 4.578125 0.363281 4.421875 0.78125 C 4.203125 2.007812 3.644531 2.46875 2.75 2.15625 Z M 2.75 2.15625 "/></g></g></g><g fill="#6437a0" fill-opacity="1"><g transform="translate(121.485457, 288.105288)"><g><path d="M 34.5 -17.4375 L 34.625 -17.3125 L 34.65625 -16.203125 C 33.925781 -15.460938 33.316406 -14.878906 32.828125 -14.453125 C 32.347656 -14.035156 31.910156 -13.707031 31.515625 -13.46875 C 31.265625 -13.289062 31.101562 -13.097656 31.03125 -12.890625 C 30.957031 -12.691406 30.796875 -12.585938 30.546875 -12.578125 L 29.6875 -12.5625 C 29.519531 -12.5625 29.4375 -12.519531 29.4375 -12.4375 C 29.363281 -12.113281 29.144531 -11.90625 28.78125 -11.8125 C 28.414062 -11.726562 28.070312 -11.597656 27.75 -11.421875 L 26.046875 -10.65625 C 25.398438 -10.320312 24.8125 -10.109375 24.28125 -10.015625 C 23.75 -9.921875 23.15625 -9.828125 22.5 -9.734375 C 22.34375 -9.734375 22.203125 -9.707031 22.078125 -9.65625 C 21.953125 -9.613281 21.804688 -9.59375 21.640625 -9.59375 C 21.148438 -9.582031 20.910156 -9.332031 20.921875 -8.84375 C 20.835938 -8.6875 20.757812 -8.503906 20.6875 -8.296875 C 20.613281 -8.085938 20.578125 -7.863281 20.578125 -7.625 L 20.828125 -7.5 C 20.828125 -7.5 20.828125 -7.476562 20.828125 -7.4375 C 20.828125 -7.394531 20.828125 -7.375 20.828125 -7.375 C 20.503906 -7.039062 20.300781 -6.707031 20.21875 -6.375 C 20.144531 -6.050781 19.910156 -5.757812 19.515625 -5.5 C 19.429688 -5.425781 19.410156 -5.304688 19.453125 -5.140625 C 19.503906 -4.972656 19.488281 -4.847656 19.40625 -4.765625 C 18.925781 -4.191406 18.507812 -3.613281 18.15625 -3.03125 C 17.800781 -2.457031 17.34375 -1.835938 16.78125 -1.171875 L 16.53125 -0.921875 C 16.21875 -0.585938 15.898438 -0.273438 15.578125 0.015625 C 15.253906 0.304688 14.96875 0.617188 14.71875 0.953125 C 14.238281 1.285156 13.796875 1.457031 13.390625 1.46875 C 12.910156 1.800781 12.445312 2.054688 12 2.234375 C 11.550781 2.410156 11.039062 2.582031 10.46875 2.75 C 9.90625 2.925781 9.492188 2.929688 9.234375 2.765625 C 8.660156 2.691406 8.023438 2.644531 7.328125 2.625 C 6.640625 2.601562 6.050781 2.46875 5.5625 2.21875 C 4.8125 2.070312 4.164062 1.820312 3.625 1.46875 C 3.09375 1.113281 2.617188 0.648438 2.203125 0.078125 C 1.535156 -0.554688 1.109375 -1.40625 0.921875 -2.46875 C 0.742188 -3.53125 0.601562 -4.550781 0.5 -5.53125 C 0.394531 -6.675781 0.535156 -7.84375 0.921875 -9.03125 C 1.316406 -10.21875 1.664062 -11.347656 1.96875 -12.421875 C 2.132812 -12.835938 2.253906 -13.328125 2.328125 -13.890625 C 2.398438 -14.460938 2.472656 -14.75 2.546875 -14.75 C 2.941406 -15.414062 3.296875 -16.078125 3.609375 -16.734375 C 3.921875 -17.398438 4.242188 -17.898438 4.578125 -18.234375 C 5.140625 -18.816406 5.71875 -19.359375 6.3125 -19.859375 C 6.914062 -20.359375 7.582031 -20.773438 8.3125 -21.109375 C 8.882812 -21.367188 9.457031 -21.503906 10.03125 -21.515625 C 10.601562 -21.523438 11.132812 -21.535156 11.625 -21.546875 C 11.945312 -21.554688 12.191406 -21.4375 12.359375 -21.1875 C 12.535156 -20.945312 12.742188 -20.707031 12.984375 -20.46875 C 13.066406 -20.394531 13.164062 -20.359375 13.28125 -20.359375 C 13.40625 -20.359375 13.507812 -20.320312 13.59375 -20.25 C 14.257812 -20.007812 14.976562 -19.832031 15.75 -19.71875 C 16.53125 -19.613281 17.296875 -19.242188 18.046875 -18.609375 C 18.140625 -18.523438 18.285156 -18.484375 18.484375 -18.484375 C 18.691406 -18.492188 18.835938 -18.457031 18.921875 -18.375 C 19.578125 -17.894531 20.203125 -17.046875 20.796875 -15.828125 L 21.703125 -13.15625 C 21.703125 -12.90625 21.703125 -12.78125 21.703125 -12.78125 C 22.847656 -13.21875 23.945312 -13.628906 25 -14.015625 C 26.050781 -14.398438 27.109375 -14.769531 28.171875 -15.125 C 29.054688 -15.539062 29.945312 -15.878906 30.84375 -16.140625 C 31.738281 -16.398438 32.957031 -16.832031 34.5 -17.4375 Z M 17.1875 -12.21875 C 17.09375 -12.53125 17.0625 -12.875 17.09375 -13.25 C 17.132812 -13.625 17.148438 -13.972656 17.140625 -14.296875 C 17.054688 -14.773438 16.945312 -15.300781 16.8125 -15.875 C 16.6875 -16.445312 16.453125 -16.972656 16.109375 -17.453125 C 15.941406 -17.785156 15.648438 -17.863281 15.234375 -17.6875 C 14.503906 -17.675781 13.9375 -17.460938 13.53125 -17.046875 C 13.21875 -16.710938 12.878906 -16.398438 12.515625 -16.109375 C 12.160156 -15.816406 11.945312 -15.382812 11.875 -14.8125 C 11.882812 -14.070312 12.054688 -13.421875 12.390625 -12.859375 C 12.566406 -12.367188 13.019531 -12.132812 13.75 -12.15625 Z M 16.140625 -8.515625 C 16.472656 -8.929688 16.347656 -9.253906 15.765625 -9.484375 C 14.941406 -9.460938 14.207031 -9.570312 13.5625 -9.8125 C 12.238281 -10.03125 11.039062 -10.539062 9.96875 -11.34375 C 9.0625 -11.8125 8.476562 -12.414062 8.21875 -13.15625 C 7.882812 -13.550781 7.671875 -13.992188 7.578125 -14.484375 C 7.265625 -13.742188 6.96875 -13.101562 6.6875 -12.5625 C 6.414062 -12.03125 6.117188 -11.4375 5.796875 -10.78125 C 5.648438 -10.53125 5.515625 -10.238281 5.390625 -9.90625 C 5.273438 -9.570312 5.175781 -9.285156 5.09375 -9.046875 C 5.019531 -8.710938 4.96875 -8.382812 4.9375 -8.0625 C 4.90625 -7.738281 4.851562 -7.410156 4.78125 -7.078125 C 4.539062 -6.492188 4.40625 -5.851562 4.375 -5.15625 C 4.34375 -4.46875 4.332031 -3.796875 4.34375 -3.140625 C 4.351562 -2.734375 4.398438 -2.367188 4.484375 -2.046875 C 4.578125 -1.722656 4.671875 -1.359375 4.765625 -0.953125 C 4.859375 -0.460938 5.210938 -0.125 5.828125 0.0625 C 6.441406 0.257812 7.15625 0.191406 7.96875 -0.140625 C 8.863281 -0.410156 9.734375 -0.835938 10.578125 -1.421875 C 11.429688 -2.003906 12.175781 -2.628906 12.8125 -3.296875 C 13.613281 -4.140625 14.289062 -5.015625 14.84375 -5.921875 C 15.09375 -6.328125 15.289062 -6.753906 15.4375 -7.203125 C 15.59375 -7.660156 15.828125 -8.097656 16.140625 -8.515625 Z M 16.140625 -8.515625 "/></g></g></g><g fill="#6437a0" fill-opacity="1"><g transform="translate(150.283692, 287.572229)"><g><path d="M 38.796875 -69.609375 C 38.890625 -69.296875 38.820312 -68.765625 38.59375 -68.015625 C 38.519531 -67.691406 38.445312 -67.300781 38.375 -66.84375 C 38.300781 -66.394531 38.222656 -65.96875 38.140625 -65.5625 L 37.9375 -64.203125 C 37.9375 -63.953125 37.894531 -63.785156 37.8125 -63.703125 C 37.820312 -63.617188 37.710938 -63.125 37.484375 -62.21875 C 37.253906 -61.320312 36.929688 -60.671875 36.515625 -60.265625 C 35.503906 -57.546875 34.3125 -54.820312 32.9375 -52.09375 C 31.5625 -49.375 30 -46.644531 28.25 -43.90625 L 27.40625 -42.921875 L 27.40625 -42.8125 C 27.257812 -42.3125 27.082031 -41.914062 26.875 -41.625 C 26.675781 -41.34375 26.460938 -40.992188 26.234375 -40.578125 C 26.148438 -40.578125 26.066406 -40.492188 25.984375 -40.328125 C 25.898438 -40.160156 25.78125 -39.992188 25.625 -39.828125 C 25.382812 -39.503906 25.1875 -39.175781 25.03125 -38.84375 C 24.875 -38.507812 24.675781 -38.222656 24.4375 -37.984375 L 23.59375 -36.984375 C 23.351562 -36.890625 23.273438 -36.71875 23.359375 -36.46875 C 23.429688 -36.476562 23.453125 -36.441406 23.421875 -36.359375 C 23.390625 -36.273438 23.289062 -36.191406 23.125 -36.109375 C 22.644531 -35.523438 22.28125 -35.148438 22.03125 -34.984375 C 21.789062 -34.816406 21.4375 -34.40625 20.96875 -33.75 C 20.488281 -33.082031 20.003906 -32.5 19.515625 -32 C 19.035156 -31.5 18.515625 -30.957031 17.953125 -30.375 C 17.316406 -29.707031 16.796875 -29.039062 16.390625 -28.375 C 15.992188 -27.71875 15.476562 -27.015625 14.84375 -26.265625 C 14.769531 -26.097656 14.648438 -25.992188 14.484375 -25.953125 C 14.316406 -25.910156 14.195312 -25.804688 14.125 -25.640625 C 14.050781 -25.316406 13.832031 -25.007812 13.46875 -24.71875 C 13.101562 -24.425781 12.757812 -24.066406 12.4375 -23.640625 C 12.4375 -23.566406 12.320312 -22.972656 12.09375 -21.859375 C 11.875 -20.753906 11.671875 -19.609375 11.484375 -18.421875 C 11.304688 -17.234375 11.179688 -16.476562 11.109375 -16.15625 L 11 -15.28125 C 11.15625 -15.289062 11.359375 -15.335938 11.609375 -15.421875 C 11.921875 -15.753906 12.257812 -16.066406 12.625 -16.359375 C 12.988281 -16.648438 13.414062 -17.003906 13.90625 -17.421875 C 14.789062 -18.085938 15.535156 -18.691406 16.140625 -19.234375 C 16.742188 -19.785156 17.488281 -20.3125 18.375 -20.8125 C 19.75 -21.582031 21.289062 -21.984375 23 -22.015625 C 23.414062 -22.015625 23.804688 -21.9375 24.171875 -21.78125 C 24.546875 -21.625 24.9375 -21.503906 25.34375 -21.421875 C 25.507812 -21.359375 25.78125 -21.242188 26.15625 -21.078125 C 26.53125 -20.921875 27.378906 -20.40625 28.703125 -19.53125 C 28.785156 -19.21875 28.847656 -18.976562 28.890625 -18.8125 C 28.941406 -18.644531 28.96875 -18.441406 28.96875 -18.203125 C 28.976562 -17.785156 28.988281 -17.3125 29 -16.78125 C 29.007812 -16.25 28.890625 -15.773438 28.640625 -15.359375 C 28.585938 -14.628906 28.460938 -13.972656 28.265625 -13.390625 C 28.066406 -12.816406 27.769531 -12.203125 27.375 -11.546875 C 27.0625 -10.960938 26.742188 -10.503906 26.421875 -10.171875 C 26.097656 -9.835938 25.78125 -9.546875 25.46875 -9.296875 C 24.570312 -8.460938 23.820312 -7.878906 23.21875 -7.546875 C 22.613281 -7.210938 21.988281 -6.828125 21.34375 -6.390625 L 18.65625 -5.484375 C 18.59375 -4.429688 18.773438 -3.316406 19.203125 -2.140625 C 19.640625 -0.960938 20.066406 -0.00390625 20.484375 0.734375 C 20.742188 1.046875 20.953125 1.203125 21.109375 1.203125 C 22.253906 1.265625 23.132812 1.226562 23.75 1.09375 C 24.363281 0.957031 25.195312 0.71875 26.25 0.375 C 27.382812 -0.132812 28.675781 -0.953125 30.125 -2.078125 C 31.570312 -3.210938 32.703125 -4.195312 33.515625 -5.03125 C 34.472656 -5.863281 35.25 -6.59375 35.84375 -7.21875 C 36.445312 -7.851562 37.070312 -8.421875 37.71875 -8.921875 L 38.46875 -8.203125 C 38.394531 -7.867188 38.300781 -7.535156 38.1875 -7.203125 C 38.070312 -6.867188 37.929688 -6.582031 37.765625 -6.34375 C 37.535156 -5.84375 37.222656 -5.222656 36.828125 -4.484375 C 36.429688 -3.742188 36.035156 -3.125 35.640625 -2.625 C 35.078125 -2.039062 34.394531 -1.1875 33.59375 -0.0625 C 32.800781 1.050781 32 1.816406 31.1875 2.234375 C 30.78125 2.492188 30.351562 2.75 29.90625 3 C 29.46875 3.25 29.085938 3.503906 28.765625 3.765625 C 28.359375 3.929688 27.953125 4.097656 27.546875 4.265625 C 27.140625 4.441406 26.648438 4.613281 26.078125 4.78125 C 25.429688 5.039062 24.882812 5.175781 24.4375 5.1875 C 23.988281 5.195312 23.476562 5.207031 22.90625 5.21875 C 22.738281 5.21875 22.59375 5.175781 22.46875 5.09375 C 22.34375 5.019531 22.203125 5.023438 22.046875 5.109375 C 20.742188 5.453125 19.753906 5.144531 19.078125 4.1875 C 18.503906 3.875 18.050781 3.597656 17.71875 3.359375 C 17.382812 3.117188 17.050781 2.796875 16.71875 2.390625 C 16.382812 1.984375 16.109375 1.554688 15.890625 1.109375 C 15.679688 0.671875 15.492188 0.164062 15.328125 -0.40625 C 14.816406 -1.695312 14.53125 -2.894531 14.46875 -4 C 14.40625 -5.101562 14.40625 -6.1875 14.46875 -7.25 L 17.984375 -9.15625 C 19.109375 -9.84375 20.195312 -10.539062 21.25 -11.25 C 22.300781 -11.957031 23.101562 -12.847656 23.65625 -13.921875 C 24.050781 -14.585938 24.265625 -15.242188 24.296875 -15.890625 C 24.328125 -16.546875 24.085938 -17.28125 23.578125 -18.09375 C 23.003906 -18.238281 22.410156 -18.160156 21.796875 -17.859375 C 21.191406 -17.566406 20.601562 -17.253906 20.03125 -16.921875 C 19.238281 -16.253906 18.535156 -15.726562 17.921875 -15.34375 C 17.316406 -14.96875 16.53125 -14.363281 15.5625 -13.53125 C 15.164062 -13.113281 14.742188 -12.753906 14.296875 -12.453125 C 13.847656 -12.160156 13.425781 -11.851562 13.03125 -11.53125 L 11.953125 -10.640625 L 10.5 -9.640625 C 10.414062 -9.460938 10.300781 -8.882812 10.15625 -7.90625 C 10.007812 -6.925781 9.894531 -6.394531 9.8125 -6.3125 C 9.582031 -5.488281 9.507812 -4.957031 9.59375 -4.71875 C 9.6875 -4.476562 9.570312 -4.148438 9.25 -3.734375 C 9.25 -3.398438 9.171875 -3.109375 9.015625 -2.859375 C 8.859375 -2.609375 8.785156 -2.320312 8.796875 -2 L 8.6875 -1.015625 L 8.578125 -0.40625 L 8.25 1.1875 C 8.40625 1.601562 8.425781 1.972656 8.3125 2.296875 C 8.195312 2.617188 8.0625 2.953125 7.90625 3.296875 C 7.675781 3.785156 7.332031 4.035156 6.875 4.046875 C 6.425781 4.054688 6.195312 3.859375 6.1875 3.453125 C 5.78125 3.285156 5.488281 3.082031 5.3125 2.84375 L 4.953125 2.109375 L 4.078125 1.265625 C 3.984375 1.109375 3.929688 0.785156 3.921875 0.296875 L 4.265625 -1.671875 C 4.410156 -2.078125 4.5 -2.523438 4.53125 -3.015625 C 4.570312 -3.515625 4.585938 -4.007812 4.578125 -4.5 L 5.015625 -6.46875 C 5.171875 -7.125 5.328125 -7.800781 5.484375 -8.5 C 5.640625 -9.195312 5.75 -9.875 5.8125 -10.53125 C 5.96875 -10.9375 6.082031 -11.46875 6.15625 -12.125 C 6.226562 -12.789062 6.300781 -13.367188 6.375 -13.859375 L 7.46875 -20.25 L 7.46875 -20.359375 C 6.976562 -20.109375 6.25 -19.609375 5.28125 -18.859375 C 4.320312 -18.109375 3.640625 -17.769531 3.234375 -17.84375 C 2.734375 -17.988281 2.398438 -18.1875 2.234375 -18.4375 C 2.148438 -18.675781 2.097656 -19.347656 2.078125 -20.453125 C 2.054688 -21.554688 2.164062 -22.191406 2.40625 -22.359375 C 3.53125 -23.035156 4.695312 -23.851562 5.90625 -24.8125 C 7.125 -25.78125 8.175781 -26.675781 9.0625 -27.5 C 9.351562 -28.738281 9.628906 -29.972656 9.890625 -31.203125 C 10.160156 -32.429688 10.410156 -33.660156 10.640625 -34.890625 C 11.023438 -36.128906 11.367188 -37.363281 11.671875 -38.59375 C 11.972656 -39.820312 12.316406 -41.097656 12.703125 -42.421875 C 13.160156 -43.890625 13.597656 -45.378906 14.015625 -46.890625 C 14.441406 -48.410156 14.972656 -49.914062 15.609375 -51.40625 C 16.234375 -52.8125 16.757812 -54.148438 17.1875 -55.421875 C 17.613281 -56.691406 18.097656 -58.023438 18.640625 -59.421875 C 18.796875 -59.921875 19.03125 -60.378906 19.34375 -60.796875 C 19.664062 -61.210938 19.863281 -61.664062 19.9375 -62.15625 C 20.09375 -62.5625 20.265625 -63.007812 20.453125 -63.5 C 20.648438 -64 20.875 -64.453125 21.125 -64.859375 C 21.507812 -65.691406 21.941406 -66.421875 22.421875 -67.046875 C 22.898438 -67.671875 23.332031 -68.476562 23.71875 -69.46875 C 23.882812 -69.707031 24.066406 -69.953125 24.265625 -70.203125 C 24.460938 -70.453125 24.644531 -70.703125 24.8125 -70.953125 C 25.050781 -71.523438 25.304688 -71.957031 25.578125 -72.25 C 25.859375 -72.539062 26.160156 -72.894531 26.484375 -73.3125 C 26.710938 -73.550781 26.867188 -73.800781 26.953125 -74.0625 C 27.285156 -74.226562 27.484375 -74.390625 27.546875 -74.546875 C 27.878906 -75.046875 28.222656 -75.484375 28.578125 -75.859375 C 28.929688 -76.234375 29.4375 -76.585938 30.09375 -76.921875 C 30.488281 -77.097656 30.847656 -77.269531 31.171875 -77.4375 C 31.503906 -77.613281 31.875 -77.707031 32.28125 -77.71875 C 33.019531 -77.726562 33.796875 -77.617188 34.609375 -77.390625 C 35.273438 -77.078125 35.859375 -76.617188 36.359375 -76.015625 C 36.859375 -75.410156 37.398438 -74.867188 37.984375 -74.390625 C 38.148438 -74.054688 38.28125 -73.601562 38.375 -73.03125 C 38.46875 -72.46875 38.5625 -71.859375 38.65625 -71.203125 C 38.738281 -71.035156 38.78125 -70.804688 38.78125 -70.515625 C 38.789062 -70.234375 38.796875 -69.929688 38.796875 -69.609375 Z M 34.671875 -68.3125 C 34.640625 -70.03125 34.578125 -71.191406 34.484375 -71.796875 C 34.390625 -72.410156 33.96875 -72.796875 33.21875 -72.953125 C 32.726562 -72.941406 32.125 -72.644531 31.40625 -72.0625 C 30.925781 -71.71875 30.523438 -71.335938 30.203125 -70.921875 C 29.878906 -70.515625 29.484375 -69.976562 29.015625 -69.3125 C 28.609375 -68.644531 28.125 -67.957031 27.5625 -67.25 C 27.007812 -66.550781 26.457031 -65.75 25.90625 -64.84375 C 25.425781 -64.007812 24.988281 -63.160156 24.59375 -62.296875 C 24.195312 -61.429688 23.765625 -60.546875 23.296875 -59.640625 C 22.984375 -58.816406 22.628906 -58.070312 22.234375 -57.40625 C 21.835938 -56.75 21.566406 -55.972656 21.421875 -55.078125 L 21.53125 -54.953125 C 21.46875 -54.546875 21.316406 -54.21875 21.078125 -53.96875 C 20.835938 -53.71875 20.640625 -53.382812 20.484375 -52.96875 C 20.160156 -52.226562 19.882812 -51.46875 19.65625 -50.6875 C 19.425781 -49.90625 19.117188 -48.894531 18.734375 -47.65625 C 18.191406 -45.6875 17.726562 -44.191406 17.34375 -43.171875 C 16.957031 -42.148438 16.578125 -40.9375 16.203125 -39.53125 C 15.648438 -37.96875 15.238281 -36.691406 14.96875 -35.703125 C 14.707031 -34.722656 14.390625 -33.453125 14.015625 -31.890625 L 14.484375 -32.765625 C 15.117188 -33.671875 15.734375 -34.414062 16.328125 -35 C 16.929688 -35.582031 17.550781 -36.367188 18.1875 -37.359375 C 19.550781 -38.859375 20.628906 -40.3125 21.421875 -41.71875 C 21.742188 -42.050781 22.039062 -42.460938 22.3125 -42.953125 C 22.59375 -43.441406 22.894531 -43.894531 23.21875 -44.3125 C 23.84375 -45.3125 24.375 -46.238281 24.8125 -47.09375 C 25.25 -47.957031 25.75 -48.722656 26.3125 -49.390625 L 26.3125 -49.515625 C 26.78125 -50.503906 27.289062 -51.410156 27.84375 -52.234375 C 28.394531 -53.066406 28.875 -53.859375 29.28125 -54.609375 C 29.75 -55.515625 30.140625 -56.359375 30.453125 -57.140625 C 30.773438 -57.921875 31.171875 -58.722656 31.640625 -59.546875 C 31.953125 -60.285156 32.320312 -61.171875 32.75 -62.203125 C 33.175781 -63.234375 33.550781 -64.238281 33.875 -65.21875 C 34.019531 -65.644531 34.109375 -66.101562 34.140625 -66.59375 C 34.171875 -67.082031 34.347656 -67.65625 34.671875 -68.3125 Z M 34.671875 -68.3125 "/></g></g></g><g fill="#6437a0" fill-opacity="1"><g transform="translate(188.395385, 286.866777)"><g><path d="M 65.359375 -52.3125 C 66.722656 -49.40625 67.046875 -46.269531 66.328125 -42.90625 C 65.617188 -39.550781 63.972656 -36.785156 61.390625 -34.609375 C 60.097656 -33.609375 58.921875 -33.015625 57.859375 -32.828125 C 56.804688 -32.640625 55.816406 -33.316406 54.890625 -34.859375 C 54.710938 -35.335938 54.925781 -35.769531 55.53125 -36.15625 C 56.144531 -36.539062 56.847656 -37.144531 57.640625 -37.96875 C 58.765625 -39.132812 59.625 -40.171875 60.21875 -41.078125 C 60.820312 -41.992188 61.226562 -43.347656 61.4375 -45.140625 C 61.582031 -46.117188 61.601562 -47.078125 61.5 -48.015625 C 61.40625 -48.960938 61.101562 -49.921875 60.59375 -50.890625 C 60.175781 -51.773438 59.492188 -52.472656 58.546875 -52.984375 C 57.597656 -53.503906 56.789062 -53.800781 56.125 -53.875 L 53.921875 -54.078125 C 53.597656 -53.816406 53.128906 -53.703125 52.515625 -53.734375 C 51.898438 -53.765625 51.59375 -53.78125 51.59375 -53.78125 C 51.269531 -53.695312 50.492188 -53.519531 49.265625 -53.25 C 48.046875 -52.976562 46.890625 -52.6875 45.796875 -52.375 C 44.703125 -52.070312 44.070312 -51.757812 43.90625 -51.4375 C 43.664062 -51.269531 43.460938 -51.125 43.296875 -51 C 43.140625 -50.875 42.941406 -50.726562 42.703125 -50.5625 C 42.222656 -50.226562 41.660156 -50.054688 41.015625 -50.046875 C 40.441406 -50.035156 40.039062 -49.613281 39.8125 -48.78125 L 36.90625 -46.53125 C 36.019531 -45.695312 34.445312 -44.546875 32.1875 -43.078125 C 29.925781 -41.609375 28.003906 -39.46875 26.421875 -36.65625 C 24.921875 -33.851562 24.703125 -31.234375 25.765625 -28.796875 C 26.835938 -26.367188 28.410156 -24.359375 30.484375 -22.765625 C 31.554688 -22.035156 32.648438 -21.375 33.765625 -20.78125 C 34.878906 -20.195312 35.972656 -19.585938 37.046875 -18.953125 C 37.460938 -18.640625 37.894531 -18.382812 38.34375 -18.1875 C 38.800781 -17.988281 39.234375 -17.769531 39.640625 -17.53125 C 41.941406 -16.425781 44.144531 -15.195312 46.25 -13.84375 C 48.363281 -12.5 50.378906 -11.023438 52.296875 -9.421875 C 55.109375 -7.023438 57.328125 -4.003906 58.953125 -0.359375 C 59.554688 1.179688 59.742188 2.609375 59.515625 3.921875 C 59.296875 5.234375 58.789062 6.472656 58 7.640625 C 56.800781 9.378906 55.070312 10.984375 52.8125 12.453125 C 50.550781 13.921875 48.0625 15.171875 45.34375 16.203125 C 42.632812 17.242188 39.976562 17.988281 37.375 18.4375 C 34.757812 18.894531 32.125 19.125 29.46875 19.125 C 26.8125 19.132812 24.171875 18.960938 21.546875 18.609375 C 17.046875 17.878906 13.421875 16.085938 10.671875 13.234375 C 7.921875 10.378906 6.421875 6.832031 6.171875 2.59375 C 6.160156 1.851562 6.53125 0.882812 7.28125 -0.3125 C 8.039062 -1.519531 8.9375 -2.742188 9.96875 -3.984375 C 11.007812 -5.234375 11.953125 -6.296875 12.796875 -7.171875 C 13.640625 -8.046875 14.144531 -8.519531 14.3125 -8.59375 C 15.28125 -9.113281 16.257812 -9.175781 17.25 -8.78125 C 18.238281 -8.382812 18.941406 -7.84375 19.359375 -7.15625 C 19.785156 -6.476562 19.632812 -6.003906 18.90625 -5.734375 C 16.875 -5.128906 15.171875 -4.140625 13.796875 -2.765625 C 12.429688 -1.390625 11.691406 0.476562 11.578125 2.84375 C 11.535156 4.644531 11.878906 6.703125 12.609375 9.015625 C 13.347656 11.335938 14.585938 13.015625 16.328125 14.046875 C 18.710938 15.390625 21.140625 16.117188 23.609375 16.234375 C 24.992188 16.296875 26.398438 16.269531 27.828125 16.15625 C 29.253906 16.050781 30.660156 15.863281 32.046875 15.59375 C 35.390625 15.03125 38.554688 14.03125 41.546875 12.59375 C 44.535156 11.15625 47.082031 9.71875 49.1875 8.28125 C 50.882812 7.1875 52.328125 5.648438 53.515625 3.671875 C 54.148438 2.597656 54.554688 1.484375 54.734375 0.328125 C 54.921875 -0.816406 54.675781 -2.035156 54 -3.328125 C 53.488281 -4.460938 52.816406 -5.488281 51.984375 -6.40625 C 51.148438 -7.332031 50.269531 -8.203125 49.34375 -9.015625 C 47.769531 -10.453125 46.035156 -11.742188 44.140625 -12.890625 C 42.242188 -14.035156 40.304688 -15.046875 38.328125 -15.921875 C 37.015625 -16.546875 35.710938 -17.253906 34.421875 -18.046875 C 33.140625 -18.835938 31.878906 -19.632812 30.640625 -20.4375 C 29.566406 -21.070312 28.097656 -22.144531 26.234375 -23.65625 C 24.367188 -25.175781 22.960938 -26.953125 22.015625 -28.984375 C 19.972656 -33.359375 20.1875 -37.445312 22.65625 -41.25 C 23.289062 -42.320312 24.007812 -43.289062 24.8125 -44.15625 C 25.613281 -45.03125 26.492188 -45.847656 27.453125 -46.609375 C 28.753906 -47.609375 30.007812 -48.546875 31.21875 -49.421875 C 32.425781 -50.304688 33.71875 -51.085938 35.09375 -51.765625 C 38.664062 -53.460938 41.5625 -54.738281 43.78125 -55.59375 C 46.007812 -56.457031 48.382812 -57.039062 50.90625 -57.34375 C 52.789062 -57.53125 54.898438 -57.519531 57.234375 -57.3125 C 59.566406 -57.113281 61.476562 -56.457031 62.96875 -55.34375 C 63.957031 -54.625 64.753906 -53.613281 65.359375 -52.3125 Z M 65.359375 -52.3125 "/></g></g></g><g fill="#6437a0" fill-opacity="1"><g transform="translate(257.266057, 285.591971)"><g><path d="M 46.140625 -17.15625 C 45.578125 -16.25 44.851562 -15.398438 43.96875 -14.609375 C 43.09375 -13.816406 42.253906 -13.125 41.453125 -12.53125 C 41.128906 -12.289062 40.785156 -12.082031 40.421875 -11.90625 C 40.054688 -11.726562 39.796875 -11.5625 39.640625 -11.40625 C 39.484375 -11.238281 39.285156 -11.03125 39.046875 -10.78125 C 38.804688 -10.53125 38.519531 -10.316406 38.1875 -10.140625 C 38.113281 -10.054688 37.914062 -9.847656 37.59375 -9.515625 C 37.269531 -9.179688 37.023438 -8.976562 36.859375 -8.90625 L 35.0625 -7.28125 L 32.15625 -5 C 31.675781 -4.425781 31.171875 -4.007812 30.640625 -3.75 C 30.117188 -3.488281 29.53125 -3.148438 28.875 -2.734375 C 28.5625 -2.578125 28.28125 -2.472656 28.03125 -2.421875 C 27.789062 -2.378906 27.507812 -2.269531 27.1875 -2.09375 C 27.101562 -2.007812 26.921875 -1.921875 26.640625 -1.828125 C 26.359375 -1.742188 26.132812 -1.703125 25.96875 -1.703125 C 25.882812 -1.703125 25.71875 -1.660156 25.46875 -1.578125 C 25.226562 -1.492188 25.03125 -1.445312 24.875 -1.4375 C 24.625 -1.4375 24.273438 -1.390625 23.828125 -1.296875 C 23.378906 -1.203125 23.03125 -1.195312 22.78125 -1.28125 C 22.695312 -1.363281 22.507812 -1.421875 22.21875 -1.453125 C 21.9375 -1.492188 21.71875 -1.550781 21.5625 -1.625 C 21.382812 -1.695312 21.210938 -1.816406 21.046875 -1.984375 C 20.890625 -2.148438 20.726562 -2.269531 20.5625 -2.34375 C 20.226562 -2.832031 19.851562 -3.234375 19.4375 -3.546875 C 19.019531 -3.859375 18.6875 -4.300781 18.4375 -4.875 C 18.09375 -5.269531 17.878906 -5.550781 17.796875 -5.71875 C 17.710938 -5.882812 17.585938 -6.128906 17.421875 -6.453125 C 17.335938 -6.535156 17.269531 -6.632812 17.21875 -6.75 C 17.175781 -6.875 17.113281 -6.972656 17.03125 -7.046875 C 16.625 -6.804688 16.34375 -6.457031 16.1875 -6 C 16.039062 -5.550781 15.757812 -5.320312 15.34375 -5.3125 C 15.269531 -5.226562 15.191406 -5.101562 15.109375 -4.9375 C 15.035156 -4.769531 14.914062 -4.648438 14.75 -4.578125 C 14.03125 -3.984375 13.203125 -3.328125 12.265625 -2.609375 C 11.335938 -1.898438 10.390625 -1.332031 9.421875 -0.90625 C 7.484375 0.101562 5.523438 0.222656 3.546875 -0.546875 C 3.128906 -0.535156 2.800781 -0.570312 2.5625 -0.65625 C 2.226562 -0.976562 1.566406 -1.378906 0.578125 -1.859375 C -0.597656 -3.304688 -0.957031 -4.929688 -0.5 -6.734375 C -0.101562 -7.640625 0.164062 -8.382812 0.3125 -8.96875 C 0.394531 -9.050781 0.4375 -9.128906 0.4375 -9.203125 C 0.507812 -9.617188 0.625 -9.988281 0.78125 -10.3125 C 0.9375 -10.632812 1.050781 -11.007812 1.125 -11.4375 L 1.96875 -12.921875 C 2.207031 -13.242188 2.40625 -13.550781 2.5625 -13.84375 C 2.71875 -14.132812 2.835938 -14.320312 2.921875 -14.40625 C 3.554688 -15.476562 4.253906 -16.429688 5.015625 -17.265625 C 5.773438 -18.097656 6.515625 -18.96875 7.234375 -19.875 C 7.953125 -20.695312 8.816406 -21.445312 9.828125 -22.125 C 10.835938 -22.800781 11.914062 -23.191406 13.0625 -23.296875 C 14.363281 -23.066406 15.632812 -22.738281 16.875 -22.3125 C 18.113281 -21.894531 18.863281 -20.992188 19.125 -19.609375 C 19.3125 -18.785156 19.242188 -18.066406 18.921875 -17.453125 C 18.609375 -16.835938 18.296875 -16.203125 17.984375 -15.546875 C 18.472656 -15.628906 18.957031 -15.835938 19.4375 -16.171875 C 19.925781 -16.503906 20.539062 -16.644531 21.28125 -16.59375 C 22.007812 -16.351562 22.507812 -15.785156 22.78125 -14.890625 C 22.78125 -14.890625 22.785156 -14.625 22.796875 -14.09375 C 22.804688 -13.5625 22.734375 -13.050781 22.578125 -12.5625 C 22.492188 -12.476562 22.453125 -12.394531 22.453125 -12.3125 C 22.453125 -12.226562 22.410156 -12.101562 22.328125 -11.9375 C 22.191406 -11.113281 22.148438 -10.253906 22.203125 -9.359375 C 22.265625 -8.460938 22.46875 -7.566406 22.8125 -6.671875 C 22.988281 -6.097656 23.363281 -5.65625 23.9375 -5.34375 C 24.175781 -5.269531 24.460938 -5.273438 24.796875 -5.359375 C 24.953125 -5.453125 25.148438 -5.519531 25.390625 -5.5625 C 25.640625 -5.601562 25.890625 -5.664062 26.140625 -5.75 C 27.109375 -6.1875 28.078125 -6.757812 29.046875 -7.46875 C 30.015625 -8.175781 30.90625 -8.828125 31.71875 -9.421875 C 32.519531 -9.921875 33.363281 -10.460938 34.25 -11.046875 C 35.144531 -11.640625 35.992188 -12.234375 36.796875 -12.828125 C 37.753906 -13.492188 38.457031 -13.953125 38.90625 -14.203125 C 39.363281 -14.453125 39.8125 -14.722656 40.25 -15.015625 C 40.695312 -15.316406 41.363281 -15.757812 42.25 -16.34375 C 42.632812 -16.769531 43.085938 -17.148438 43.609375 -17.484375 C 44.140625 -17.816406 44.6875 -18.15625 45.25 -18.5 L 45.625 -18.25 Z M 16.3125 -13.1875 C 16.394531 -13.1875 16.515625 -13.285156 16.671875 -13.484375 C 16.828125 -13.691406 16.90625 -13.796875 16.90625 -13.796875 L 16.78125 -13.796875 C 15.882812 -13.867188 15.328125 -14.367188 15.109375 -15.296875 C 14.890625 -16.234375 14.828125 -17.171875 14.921875 -18.109375 C 15.023438 -19.054688 15.078125 -19.53125 15.078125 -19.53125 C 13.867188 -19.34375 12.640625 -18.664062 11.390625 -17.5 C 10.148438 -16.332031 9.046875 -15.101562 8.078125 -13.8125 C 7.117188 -12.53125 6.40625 -11.476562 5.9375 -10.65625 C 5.375 -9.664062 4.859375 -8.632812 4.390625 -7.5625 C 3.921875 -6.488281 3.535156 -5.335938 3.234375 -4.109375 C 3.890625 -4.117188 4.707031 -4.175781 5.6875 -4.28125 C 6.664062 -4.382812 7.4375 -4.5625 8 -4.8125 C 9.375 -5.40625 10.664062 -6.367188 11.875 -7.703125 C 12.75 -8.703125 13.484375 -9.613281 14.078125 -10.4375 C 14.679688 -11.269531 15.425781 -12.1875 16.3125 -13.1875 Z M 16.3125 -13.1875 "/></g></g></g><g fill="#6437a0" fill-opacity="1"><g transform="translate(296.97086, 284.85703)"><g><path d="M 2.75 2.15625 C 2.40625 2 2.128906 1.796875 1.921875 1.546875 C 1.710938 1.304688 1.363281 1.070312 0.875 0.84375 C 0.613281 0.1875 0.375 -0.441406 0.15625 -1.046875 C -0.0507812 -1.660156 -0.0820312 -2.375 0.0625 -3.1875 L 0.953125 -8.234375 C 1.097656 -8.890625 1.25 -9.566406 1.40625 -10.265625 C 1.5625 -10.960938 1.628906 -11.640625 1.609375 -12.296875 C 1.753906 -13.191406 1.941406 -14.050781 2.171875 -14.875 C 2.398438 -15.695312 2.550781 -16.515625 2.625 -17.328125 C 2.769531 -18.234375 2.914062 -19.09375 3.0625 -19.90625 C 3.207031 -20.726562 3.316406 -21.550781 3.390625 -22.375 C 3.460938 -22.539062 3.5 -22.707031 3.5 -22.875 C 3.5 -23.039062 3.539062 -23.164062 3.625 -23.25 C 3.851562 -23.65625 4.210938 -23.863281 4.703125 -23.875 C 6.003906 -24.382812 6.914062 -23.742188 7.4375 -21.953125 C 7.863281 -20.984375 8.007812 -19.925781 7.875 -18.78125 C 7.875 -18.625 7.832031 -18.441406 7.75 -18.234375 C 7.675781 -18.023438 7.644531 -17.753906 7.65625 -17.421875 C 7.8125 -17.679688 7.988281 -17.910156 8.1875 -18.109375 C 8.382812 -18.316406 8.523438 -18.507812 8.609375 -18.6875 C 8.921875 -19.257812 9.257812 -19.726562 9.625 -20.09375 C 9.988281 -20.46875 10.367188 -20.863281 10.765625 -21.28125 C 11.328125 -22.113281 11.925781 -22.800781 12.5625 -23.34375 C 13.207031 -23.894531 13.851562 -24.378906 14.5 -24.796875 C 16.03125 -26.046875 17.625 -26.195312 19.28125 -25.25 C 19.601562 -25.007812 19.910156 -24.769531 20.203125 -24.53125 C 20.492188 -24.289062 20.765625 -24.046875 21.015625 -23.796875 C 21.265625 -23.566406 21.429688 -23.453125 21.515625 -23.453125 C 21.921875 -23.210938 22.253906 -22.726562 22.515625 -22 L 22.40625 -21.375 C 22.40625 -21.375 22.222656 -21.351562 21.859375 -21.3125 C 21.492188 -21.269531 20.898438 -21.398438 20.078125 -21.703125 C 19.753906 -21.703125 19.40625 -21.695312 19.03125 -21.6875 C 18.664062 -21.675781 18.28125 -21.507812 17.875 -21.1875 C 17.632812 -20.84375 17.351562 -20.585938 17.03125 -20.421875 C 16.707031 -20.253906 16.34375 -20.039062 15.9375 -19.78125 C 15.78125 -19.707031 15.640625 -19.566406 15.515625 -19.359375 C 15.398438 -19.148438 15.257812 -18.960938 15.09375 -18.796875 C 14.78125 -18.460938 14.441406 -18.144531 14.078125 -17.84375 C 13.710938 -17.550781 13.367188 -17.242188 13.046875 -16.921875 L 10.78125 -13.8125 C 10.382812 -13.226562 9.945312 -12.601562 9.46875 -11.9375 C 8.988281 -11.28125 8.550781 -10.582031 8.15625 -9.84375 C 7.84375 -9.007812 7.46875 -8.222656 7.03125 -7.484375 C 6.601562 -6.742188 6.191406 -6 5.796875 -5.25 C 5.554688 -4.6875 5.378906 -4.113281 5.265625 -3.53125 C 5.148438 -2.957031 5.019531 -2.382812 4.875 -1.8125 C 4.800781 -1.40625 4.742188 -0.972656 4.703125 -0.515625 C 4.671875 -0.0664062 4.578125 0.363281 4.421875 0.78125 C 4.203125 2.007812 3.644531 2.46875 2.75 2.15625 Z M 2.75 2.15625 "/></g></g></g><g fill="#6437a0" fill-opacity="1"><g transform="translate(320.989818, 284.412436)"><g><path d="M 24.984375 -40.921875 L 22.90625 -40.640625 L 22.796875 -40.390625 C 25.171875 -40.515625 26.820312 -40.601562 27.75 -40.65625 C 28.6875 -40.71875 29.769531 -40.804688 31 -40.921875 C 31.25 -40.753906 31.253906 -40.59375 31.015625 -40.4375 L 29.171875 -40.140625 C 28.859375 -39.890625 28.003906 -39.75 26.609375 -39.71875 C 26.285156 -39.71875 25.859375 -39.710938 25.328125 -39.703125 C 24.796875 -39.691406 24.125 -39.640625 23.3125 -39.546875 C 22.65625 -39.535156 21.914062 -39.539062 21.09375 -39.5625 C 20.28125 -39.582031 19.585938 -39.550781 19.015625 -39.46875 L 17.671875 -39.453125 L 16.390625 -35.25 C 16.148438 -35.164062 15.953125 -34.914062 15.796875 -34.5 C 15.640625 -34.09375 15.601562 -33.765625 15.6875 -33.515625 C 15.769531 -33.429688 15.65625 -33.144531 15.34375 -32.65625 C 15.519531 -32.082031 15.285156 -31.460938 14.640625 -30.796875 C 14.640625 -30.722656 14.597656 -30.625 14.515625 -30.5 C 14.429688 -30.375 14.4375 -30.226562 14.53125 -30.0625 C 14.78125 -29.570312 14.625 -29.242188 14.0625 -29.078125 C 14.0625 -29.078125 14.0625 -28.910156 14.0625 -28.578125 C 13.90625 -28.171875 13.832031 -27.78125 13.84375 -27.40625 C 13.851562 -27.039062 13.773438 -26.65625 13.609375 -26.25 C 13.535156 -25.925781 13.441406 -25.640625 13.328125 -25.390625 C 13.210938 -25.140625 13.113281 -24.890625 13.03125 -24.640625 C 12.957031 -24.066406 12.800781 -23.472656 12.5625 -22.859375 C 12.332031 -22.242188 12.179688 -21.648438 12.109375 -21.078125 C 11.960938 -20.742188 11.804688 -20.390625 11.640625 -20.015625 C 11.484375 -19.648438 11.410156 -19.257812 11.421875 -18.84375 C 11.265625 -18.195312 11.09375 -17.519531 10.90625 -16.8125 C 10.71875 -16.113281 10.585938 -15.441406 10.515625 -14.796875 C 10.441406 -14.628906 10.34375 -14.441406 10.21875 -14.234375 C 10.101562 -14.023438 9.960938 -13.835938 9.796875 -13.671875 C 9.972656 -13.347656 10.019531 -13.019531 9.9375 -12.6875 C 9.863281 -12.363281 9.828125 -12.035156 9.828125 -11.703125 C 9.828125 -11.628906 9.769531 -11.46875 9.65625 -11.21875 C 9.539062 -10.96875 9.488281 -10.757812 9.5 -10.59375 C 9.34375 -9.851562 9.304688 -9.363281 9.390625 -9.125 C 9.085938 -8.144531 8.945312 -7.160156 8.96875 -6.171875 C 8.96875 -5.929688 8.890625 -5.722656 8.734375 -5.546875 C 8.566406 -5.546875 8.648438 -5.46875 8.984375 -5.3125 C 8.828125 -4.894531 8.625 -4.484375 8.375 -4.078125 C 8.632812 -3.753906 8.789062 -3.207031 8.84375 -2.4375 C 8.90625 -1.664062 8.769531 -1.234375 8.4375 -1.140625 C 8.601562 -1.054688 8.726562 -0.972656 8.8125 -0.890625 C 8.894531 -0.816406 8.816406 -0.695312 8.578125 -0.53125 C 8.910156 -0.457031 9.082031 -0.132812 9.09375 0.4375 C 9.007812 0.84375 9.03125 1.269531 9.15625 1.71875 C 9.289062 2.175781 9.40625 2.609375 9.5 3.015625 C 9.5 3.421875 9.601562 3.742188 9.8125 3.984375 C 10.019531 4.222656 10.171875 4.425781 10.265625 4.59375 L 11.140625 5.5625 C 11.710938 5.875 12.101562 6.066406 12.3125 6.140625 C 12.519531 6.222656 12.910156 6.21875 13.484375 6.125 C 13.972656 6.195312 14.5 6.101562 15.0625 5.84375 C 15.632812 5.59375 15.921875 5.46875 15.921875 5.46875 C 16.097656 6.039062 16.003906 6.550781 15.640625 7 C 15.273438 7.457031 14.9375 7.9375 14.625 8.4375 C 14.382812 8.757812 13.976562 8.925781 13.40625 8.9375 L 13.65625 8.9375 C 12.757812 9.039062 12.101562 9.070312 11.6875 9.03125 C 11.28125 9 10.625 8.707031 9.71875 8.15625 C 9.144531 8.007812 8.6875 7.753906 8.34375 7.390625 C 8.007812 7.023438 7.59375 6.5625 7.09375 6 C 6.925781 5.757812 6.675781 5.476562 6.34375 5.15625 C 5.664062 4.1875 5.15625 3.113281 4.8125 1.9375 C 4.46875 0.757812 4.160156 -0.441406 3.890625 -1.671875 C 3.628906 -2.890625 3.546875 -4.113281 3.640625 -5.34375 C 3.742188 -6.570312 3.820312 -7.84375 3.875 -9.15625 C 3.78125 -9.882812 3.828125 -10.613281 4.015625 -11.34375 C 4.203125 -12.082031 4.332031 -12.828125 4.40625 -13.578125 L 5.203125 -17.03125 C 5.441406 -17.675781 5.59375 -18.347656 5.65625 -19.046875 C 5.71875 -19.742188 5.867188 -20.503906 6.109375 -21.328125 C 6.097656 -21.578125 6.171875 -21.800781 6.328125 -22 C 6.492188 -22.207031 6.613281 -22.472656 6.6875 -22.796875 L 6.9375 -22.8125 C 6.851562 -22.894531 6.8125 -22.976562 6.8125 -23.0625 C 6.8125 -23.144531 6.769531 -23.222656 6.6875 -23.296875 L 10.375 -35.625 L 11.546875 -39.453125 C 10.148438 -39.421875 8.265625 -39.507812 5.890625 -39.71875 C 5.148438 -39.875 4.488281 -40.046875 3.90625 -40.234375 C 3.332031 -40.421875 3 -40.800781 2.90625 -41.375 C 2.90625 -41.53125 2.960938 -41.773438 3.078125 -42.109375 C 3.203125 -42.441406 3.425781 -42.648438 3.75 -42.734375 C 4.070312 -43.140625 4.332031 -43.34375 4.53125 -43.34375 C 4.738281 -43.351562 4.84375 -43.359375 4.84375 -43.359375 C 4.925781 -43.359375 5.046875 -43.335938 5.203125 -43.296875 C 5.367188 -43.253906 5.492188 -43.28125 5.578125 -43.375 C 5.972656 -43.539062 6.375 -43.671875 6.78125 -43.765625 C 7.195312 -43.859375 7.609375 -43.820312 8.015625 -43.65625 L 10.359375 -43.453125 C 10.929688 -43.546875 11.441406 -43.597656 11.890625 -43.609375 C 12.335938 -43.617188 12.722656 -43.625 13.046875 -43.625 C 13.441406 -44.289062 13.710938 -44.929688 13.859375 -45.546875 C 14.015625 -46.171875 14.25 -46.765625 14.5625 -47.328125 C 14.71875 -47.992188 14.910156 -48.613281 15.140625 -49.1875 C 15.378906 -49.757812 15.617188 -50.335938 15.859375 -50.921875 C 16.003906 -51.578125 16.234375 -52.234375 16.546875 -52.890625 C 16.867188 -53.546875 17.101562 -54.25 17.25 -55 C 17.5625 -55.65625 17.816406 -56.332031 18.015625 -57.03125 C 18.210938 -57.726562 18.460938 -58.453125 18.765625 -59.203125 C 18.765625 -59.441406 18.84375 -59.644531 19 -59.8125 C 19.15625 -59.976562 19.316406 -60.222656 19.484375 -60.546875 C 19.640625 -60.960938 19.8125 -61.457031 20 -62.03125 C 20.195312 -62.601562 20.332031 -63.097656 20.40625 -63.515625 C 20.632812 -64.171875 20.992188 -64.421875 21.484375 -64.265625 C 21.578125 -64.179688 21.6875 -64.117188 21.8125 -64.078125 C 21.9375 -64.046875 22.039062 -63.992188 22.125 -63.921875 C 22.613281 -63.585938 23.082031 -63.320312 23.53125 -63.125 C 23.988281 -62.9375 24.265625 -62.597656 24.359375 -62.109375 C 24.441406 -61.941406 24.585938 -61.78125 24.796875 -61.625 C 25.003906 -61.46875 25.148438 -61.304688 25.234375 -61.140625 C 25.734375 -60.828125 25.941406 -60.503906 25.859375 -60.171875 C 25.785156 -59.847656 25.671875 -59.476562 25.515625 -59.0625 C 25.046875 -57.914062 24.578125 -56.785156 24.109375 -55.671875 C 23.640625 -54.554688 23.082031 -53.460938 22.4375 -52.390625 C 22.300781 -51.648438 22.035156 -50.890625 21.640625 -50.109375 C 21.242188 -49.328125 20.890625 -48.519531 20.578125 -47.6875 C 20.191406 -46.457031 19.898438 -45.578125 19.703125 -45.046875 C 19.503906 -44.515625 19.332031 -43.921875 19.1875 -43.265625 C 20.082031 -43.191406 20.773438 -43.097656 21.265625 -42.984375 C 21.765625 -42.878906 22.140625 -42.867188 22.390625 -42.953125 C 24.347656 -42.910156 25.835938 -42.878906 26.859375 -42.859375 C 27.878906 -42.847656 28.71875 -42.863281 29.375 -42.90625 C 30.03125 -42.957031 30.765625 -43.070312 31.578125 -43.25 C 31.734375 -43.332031 31.929688 -43.453125 32.171875 -43.609375 C 32.421875 -43.773438 32.628906 -43.785156 32.796875 -43.640625 C 32.960938 -43.078125 32.742188 -42.6875 32.140625 -42.46875 C 31.535156 -42.25 31.113281 -41.929688 30.875 -41.515625 L 30.625 -41.390625 C 30.300781 -41.390625 29.851562 -41.363281 29.28125 -41.3125 C 28.707031 -41.269531 28.21875 -41.160156 27.8125 -40.984375 C 27.5625 -41.140625 27.128906 -41.191406 26.515625 -41.140625 C 25.910156 -41.085938 25.398438 -41.015625 24.984375 -40.921875 Z M 24.984375 -40.921875 "/></g></g></g><g fill="#6437a0" fill-opacity="1"><g transform="translate(45.689616, 331.534646)"><g><path d="M 10.203125 0.140625 C 8.515625 0.140625 6.988281 -0.226562 5.625 -0.96875 C 4.269531 -1.71875 3.203125 -2.753906 2.421875 -4.078125 C 1.648438 -5.410156 1.265625 -6.898438 1.265625 -8.546875 C 1.265625 -10.191406 1.648438 -11.675781 2.421875 -13 C 3.203125 -14.332031 4.273438 -15.367188 5.640625 -16.109375 C 7.003906 -16.859375 8.535156 -17.234375 10.234375 -17.234375 C 11.503906 -17.234375 12.675781 -17.019531 13.75 -16.59375 C 14.820312 -16.175781 15.734375 -15.5625 16.484375 -14.75 L 15.34375 -13.609375 C 14 -14.953125 12.3125 -15.625 10.28125 -15.625 C 8.925781 -15.625 7.695312 -15.316406 6.59375 -14.703125 C 5.488281 -14.085938 4.617188 -13.238281 3.984375 -12.15625 C 3.359375 -11.082031 3.046875 -9.878906 3.046875 -8.546875 C 3.046875 -7.210938 3.359375 -6.007812 3.984375 -4.9375 C 4.617188 -3.863281 5.488281 -3.015625 6.59375 -2.390625 C 7.695312 -1.773438 8.925781 -1.46875 10.28125 -1.46875 C 12.332031 -1.46875 14.019531 -2.148438 15.34375 -3.515625 L 16.484375 -2.375 C 15.734375 -1.550781 14.816406 -0.925781 13.734375 -0.5 C 12.648438 -0.0703125 11.472656 0.140625 10.203125 0.140625 Z M 10.203125 0.140625 "/></g></g></g><g fill="#6437a0" fill-opacity="1"><g transform="translate(63.240774, 331.534646)"><g><path d="M 2.421875 -18.125 L 4.15625 -18.125 L 4.15625 0 L 2.421875 0 Z M 2.421875 -18.125 "/></g></g></g><g fill="#6437a0" fill-opacity="1"><g transform="translate(69.807199, 331.534646)"><g><path d="M 13.609375 -5.890625 L 2.859375 -5.890625 C 2.953125 -4.554688 3.460938 -3.476562 4.390625 -2.65625 C 5.316406 -1.832031 6.488281 -1.421875 7.90625 -1.421875 C 8.707031 -1.421875 9.441406 -1.5625 10.109375 -1.84375 C 10.773438 -2.125 11.351562 -2.546875 11.84375 -3.109375 L 12.828125 -1.984375 C 12.253906 -1.296875 11.539062 -0.769531 10.6875 -0.40625 C 9.832031 -0.0507812 8.890625 0.125 7.859375 0.125 C 6.546875 0.125 5.378906 -0.15625 4.359375 -0.71875 C 3.335938 -1.28125 2.539062 -2.054688 1.96875 -3.046875 C 1.40625 -4.046875 1.125 -5.171875 1.125 -6.421875 C 1.125 -7.671875 1.394531 -8.789062 1.9375 -9.78125 C 2.488281 -10.78125 3.238281 -11.554688 4.1875 -12.109375 C 5.132812 -12.660156 6.207031 -12.9375 7.40625 -12.9375 C 8.59375 -12.9375 9.65625 -12.660156 10.59375 -12.109375 C 11.539062 -11.554688 12.28125 -10.785156 12.8125 -9.796875 C 13.351562 -8.816406 13.625 -7.691406 13.625 -6.421875 Z M 7.40625 -11.453125 C 6.164062 -11.453125 5.125 -11.054688 4.28125 -10.265625 C 3.445312 -9.472656 2.972656 -8.445312 2.859375 -7.1875 L 11.96875 -7.1875 C 11.851562 -8.445312 11.375 -9.472656 10.53125 -10.265625 C 9.695312 -11.054688 8.65625 -11.453125 7.40625 -11.453125 Z M 7.40625 -11.453125 "/></g></g></g><g fill="#6437a0" fill-opacity="1"><g transform="translate(84.551145, 331.534646)"><g><path d="M 6.90625 -12.9375 C 8.582031 -12.9375 9.867188 -12.515625 10.765625 -11.671875 C 11.660156 -10.835938 12.109375 -9.601562 12.109375 -7.96875 L 12.109375 0 L 10.453125 0 L 10.453125 -2 C 10.054688 -1.332031 9.476562 -0.8125 8.71875 -0.4375 C 7.96875 -0.0625 7.070312 0.125 6.03125 0.125 C 4.601562 0.125 3.460938 -0.210938 2.609375 -0.890625 C 1.765625 -1.578125 1.34375 -2.484375 1.34375 -3.609375 C 1.34375 -4.703125 1.738281 -5.582031 2.53125 -6.25 C 3.320312 -6.914062 4.578125 -7.25 6.296875 -7.25 L 10.375 -7.25 L 10.375 -8.03125 C 10.375 -9.144531 10.0625 -9.988281 9.4375 -10.5625 C 8.820312 -11.132812 7.921875 -11.421875 6.734375 -11.421875 C 5.921875 -11.421875 5.140625 -11.285156 4.390625 -11.015625 C 3.640625 -10.753906 3 -10.390625 2.46875 -9.921875 L 1.6875 -11.203125 C 2.332031 -11.765625 3.109375 -12.191406 4.015625 -12.484375 C 4.929688 -12.785156 5.894531 -12.9375 6.90625 -12.9375 Z M 6.296875 -1.25 C 7.273438 -1.25 8.113281 -1.472656 8.8125 -1.921875 C 9.507812 -2.367188 10.03125 -3.015625 10.375 -3.859375 L 10.375 -5.953125 L 6.34375 -5.953125 C 4.144531 -5.953125 3.046875 -5.1875 3.046875 -3.65625 C 3.046875 -2.914062 3.332031 -2.328125 3.90625 -1.890625 C 4.476562 -1.460938 5.273438 -1.25 6.296875 -1.25 Z M 6.296875 -1.25 "/></g></g></g><g fill="#6437a0" fill-opacity="1"><g transform="translate(98.953346, 331.534646)"><g><path d="M 8.96875 -12.9375 C 10.570312 -12.9375 11.847656 -12.46875 12.796875 -11.53125 C 13.753906 -10.601562 14.234375 -9.242188 14.234375 -7.453125 L 14.234375 0 L 12.5 0 L 12.5 -7.28125 C 12.5 -8.613281 12.164062 -9.628906 11.5 -10.328125 C 10.832031 -11.023438 9.878906 -11.375 8.640625 -11.375 C 7.253906 -11.375 6.160156 -10.960938 5.359375 -10.140625 C 4.554688 -9.316406 4.15625 -8.179688 4.15625 -6.734375 L 4.15625 0 L 2.421875 0 L 2.421875 -12.84375 L 4.078125 -12.84375 L 4.078125 -10.484375 C 4.546875 -11.265625 5.195312 -11.867188 6.03125 -12.296875 C 6.875 -12.722656 7.851562 -12.9375 8.96875 -12.9375 Z M 8.96875 -12.9375 "/></g></g></g><g fill="#6437a0" fill-opacity="1"><g transform="translate(115.47927, 331.534646)"><g/></g></g><g fill="#6437a0" fill-opacity="1"><g transform="translate(121.874831, 331.534646)"><g><path d="M 2.78125 -17.09375 L 4.59375 -17.09375 L 4.59375 -1.5625 L 14.171875 -1.5625 L 14.171875 0 L 2.78125 0 Z M 2.78125 -17.09375 "/></g></g></g><g fill="#6437a0" fill-opacity="1"><g transform="translate(136.25262, 331.534646)"><g><path d="M 6.90625 -12.9375 C 8.582031 -12.9375 9.867188 -12.515625 10.765625 -11.671875 C 11.660156 -10.835938 12.109375 -9.601562 12.109375 -7.96875 L 12.109375 0 L 10.453125 0 L 10.453125 -2 C 10.054688 -1.332031 9.476562 -0.8125 8.71875 -0.4375 C 7.96875 -0.0625 7.070312 0.125 6.03125 0.125 C 4.601562 0.125 3.460938 -0.210938 2.609375 -0.890625 C 1.765625 -1.578125 1.34375 -2.484375 1.34375 -3.609375 C 1.34375 -4.703125 1.738281 -5.582031 2.53125 -6.25 C 3.320312 -6.914062 4.578125 -7.25 6.296875 -7.25 L 10.375 -7.25 L 10.375 -8.03125 C 10.375 -9.144531 10.0625 -9.988281 9.4375 -10.5625 C 8.820312 -11.132812 7.921875 -11.421875 6.734375 -11.421875 C 5.921875 -11.421875 5.140625 -11.285156 4.390625 -11.015625 C 3.640625 -10.753906 3 -10.390625 2.46875 -9.921875 L 1.6875 -11.203125 C 2.332031 -11.765625 3.109375 -12.191406 4.015625 -12.484375 C 4.929688 -12.785156 5.894531 -12.9375 6.90625 -12.9375 Z M 6.296875 -1.25 C 7.273438 -1.25 8.113281 -1.472656 8.8125 -1.921875 C 9.507812 -2.367188 10.03125 -3.015625 10.375 -3.859375 L 10.375 -5.953125 L 6.34375 -5.953125 C 4.144531 -5.953125 3.046875 -5.1875 3.046875 -3.65625 C 3.046875 -2.914062 3.332031 -2.328125 3.90625 -1.890625 C 4.476562 -1.460938 5.273438 -1.25 6.296875 -1.25 Z M 6.296875 -1.25 "/></g></g></g><g fill="#6437a0" fill-opacity="1"><g transform="translate(150.654821, 331.534646)"><g><path d="M 8.96875 -12.9375 C 10.570312 -12.9375 11.847656 -12.46875 12.796875 -11.53125 C 13.753906 -10.601562 14.234375 -9.242188 14.234375 -7.453125 L 14.234375 0 L 12.5 0 L 12.5 -7.28125 C 12.5 -8.613281 12.164062 -9.628906 11.5 -10.328125 C 10.832031 -11.023438 9.878906 -11.375 8.640625 -11.375 C 7.253906 -11.375 6.160156 -10.960938 5.359375 -10.140625 C 4.554688 -9.316406 4.15625 -8.179688 4.15625 -6.734375 L 4.15625 0 L 2.421875 0 L 2.421875 -12.84375 L 4.078125 -12.84375 L 4.078125 -10.484375 C 4.546875 -11.265625 5.195312 -11.867188 6.03125 -12.296875 C 6.875 -12.722656 7.851562 -12.9375 8.96875 -12.9375 Z M 8.96875 -12.9375 "/></g></g></g><g fill="#6437a0" fill-opacity="1"><g transform="translate(167.180745, 331.534646)"><g><path d="M 14.140625 -18.125 L 14.140625 0 L 12.484375 0 L 12.484375 -2.546875 C 11.960938 -1.679688 11.273438 -1.019531 10.421875 -0.5625 C 9.566406 -0.101562 8.597656 0.125 7.515625 0.125 C 6.316406 0.125 5.226562 -0.148438 4.25 -0.703125 C 3.269531 -1.253906 2.503906 -2.023438 1.953125 -3.015625 C 1.398438 -4.015625 1.125 -5.148438 1.125 -6.421875 C 1.125 -7.691406 1.398438 -8.820312 1.953125 -9.8125 C 2.503906 -10.8125 3.269531 -11.582031 4.25 -12.125 C 5.226562 -12.664062 6.316406 -12.9375 7.515625 -12.9375 C 8.554688 -12.9375 9.492188 -12.722656 10.328125 -12.296875 C 11.171875 -11.867188 11.863281 -11.238281 12.40625 -10.40625 L 12.40625 -18.125 Z M 7.671875 -1.421875 C 8.566406 -1.421875 9.375 -1.625 10.09375 -2.03125 C 10.820312 -2.445312 11.394531 -3.035156 11.8125 -3.796875 C 12.226562 -4.566406 12.4375 -5.441406 12.4375 -6.421875 C 12.4375 -7.398438 12.226562 -8.269531 11.8125 -9.03125 C 11.394531 -9.800781 10.820312 -10.390625 10.09375 -10.796875 C 9.375 -11.210938 8.566406 -11.421875 7.671875 -11.421875 C 6.753906 -11.421875 5.929688 -11.210938 5.203125 -10.796875 C 4.484375 -10.390625 3.914062 -9.800781 3.5 -9.03125 C 3.082031 -8.269531 2.875 -7.398438 2.875 -6.421875 C 2.875 -5.441406 3.082031 -4.566406 3.5 -3.796875 C 3.914062 -3.035156 4.484375 -2.445312 5.203125 -2.03125 C 5.929688 -1.625 6.753906 -1.421875 7.671875 -1.421875 Z M 7.671875 -1.421875 "/></g></g></g><g fill="#6437a0" fill-opacity="1"><g transform="translate(183.73108, 331.534646)"><g/></g></g><g fill="#6437a0" fill-opacity="1"><g transform="translate(190.126642, 331.534646)"><g><path d="M 10.203125 0.140625 C 8.515625 0.140625 6.988281 -0.226562 5.625 -0.96875 C 4.269531 -1.71875 3.203125 -2.753906 2.421875 -4.078125 C 1.648438 -5.410156 1.265625 -6.898438 1.265625 -8.546875 C 1.265625 -10.191406 1.648438 -11.675781 2.421875 -13 C 3.203125 -14.332031 4.273438 -15.367188 5.640625 -16.109375 C 7.003906 -16.859375 8.535156 -17.234375 10.234375 -17.234375 C 11.503906 -17.234375 12.675781 -17.019531 13.75 -16.59375 C 14.820312 -16.175781 15.734375 -15.5625 16.484375 -14.75 L 15.34375 -13.609375 C 14 -14.953125 12.3125 -15.625 10.28125 -15.625 C 8.925781 -15.625 7.695312 -15.316406 6.59375 -14.703125 C 5.488281 -14.085938 4.617188 -13.238281 3.984375 -12.15625 C 3.359375 -11.082031 3.046875 -9.878906 3.046875 -8.546875 C 3.046875 -7.210938 3.359375 -6.007812 3.984375 -4.9375 C 4.617188 -3.863281 5.488281 -3.015625 6.59375 -2.390625 C 7.695312 -1.773438 8.925781 -1.46875 10.28125 -1.46875 C 12.332031 -1.46875 14.019531 -2.148438 15.34375 -3.515625 L 16.484375 -2.375 C 15.734375 -1.550781 14.816406 -0.925781 13.734375 -0.5 C 12.648438 -0.0703125 11.472656 0.140625 10.203125 0.140625 Z M 10.203125 0.140625 "/></g></g></g><g fill="#6437a0" fill-opacity="1"><g transform="translate(207.6778, 331.534646)"><g><path d="M 2.421875 -18.125 L 4.15625 -18.125 L 4.15625 0 L 2.421875 0 Z M 2.421875 -18.125 "/></g></g></g><g fill="#6437a0" fill-opacity="1"><g transform="translate(214.244225, 331.534646)"><g><path d="M 13.609375 -5.890625 L 2.859375 -5.890625 C 2.953125 -4.554688 3.460938 -3.476562 4.390625 -2.65625 C 5.316406 -1.832031 6.488281 -1.421875 7.90625 -1.421875 C 8.707031 -1.421875 9.441406 -1.5625 10.109375 -1.84375 C 10.773438 -2.125 11.351562 -2.546875 11.84375 -3.109375 L 12.828125 -1.984375 C 12.253906 -1.296875 11.539062 -0.769531 10.6875 -0.40625 C 9.832031 -0.0507812 8.890625 0.125 7.859375 0.125 C 6.546875 0.125 5.378906 -0.15625 4.359375 -0.71875 C 3.335938 -1.28125 2.539062 -2.054688 1.96875 -3.046875 C 1.40625 -4.046875 1.125 -5.171875 1.125 -6.421875 C 1.125 -7.671875 1.394531 -8.789062 1.9375 -9.78125 C 2.488281 -10.78125 3.238281 -11.554688 4.1875 -12.109375 C 5.132812 -12.660156 6.207031 -12.9375 7.40625 -12.9375 C 8.59375 -12.9375 9.65625 -12.660156 10.59375 -12.109375 C 11.539062 -11.554688 12.28125 -10.785156 12.8125 -9.796875 C 13.351562 -8.816406 13.625 -7.691406 13.625 -6.421875 Z M 7.40625 -11.453125 C 6.164062 -11.453125 5.125 -11.054688 4.28125 -10.265625 C 3.445312 -9.472656 2.972656 -8.445312 2.859375 -7.1875 L 11.96875 -7.1875 C 11.851562 -8.445312 11.375 -9.472656 10.53125 -10.265625 C 9.695312 -11.054688 8.65625 -11.453125 7.40625 -11.453125 Z M 7.40625 -11.453125 "/></g></g></g><g fill="#6437a0" fill-opacity="1"><g transform="translate(228.988171, 331.534646)"><g><path d="M 6.90625 -12.9375 C 8.582031 -12.9375 9.867188 -12.515625 10.765625 -11.671875 C 11.660156 -10.835938 12.109375 -9.601562 12.109375 -7.96875 L 12.109375 0 L 10.453125 0 L 10.453125 -2 C 10.054688 -1.332031 9.476562 -0.8125 8.71875 -0.4375 C 7.96875 -0.0625 7.070312 0.125 6.03125 0.125 C 4.601562 0.125 3.460938 -0.210938 2.609375 -0.890625 C 1.765625 -1.578125 1.34375 -2.484375 1.34375 -3.609375 C 1.34375 -4.703125 1.738281 -5.582031 2.53125 -6.25 C 3.320312 -6.914062 4.578125 -7.25 6.296875 -7.25 L 10.375 -7.25 L 10.375 -8.03125 C 10.375 -9.144531 10.0625 -9.988281 9.4375 -10.5625 C 8.820312 -11.132812 7.921875 -11.421875 6.734375 -11.421875 C 5.921875 -11.421875 5.140625 -11.285156 4.390625 -11.015625 C 3.640625 -10.753906 3 -10.390625 2.46875 -9.921875 L 1.6875 -11.203125 C 2.332031 -11.765625 3.109375 -12.191406 4.015625 -12.484375 C 4.929688 -12.785156 5.894531 -12.9375 6.90625 -12.9375 Z M 6.296875 -1.25 C 7.273438 -1.25 8.113281 -1.472656 8.8125 -1.921875 C 9.507812 -2.367188 10.03125 -3.015625 10.375 -3.859375 L 10.375 -5.953125 L 6.34375 -5.953125 C 4.144531 -5.953125 3.046875 -5.1875 3.046875 -3.65625 C 3.046875 -2.914062 3.332031 -2.328125 3.90625 -1.890625 C 4.476562 -1.460938 5.273438 -1.25 6.296875 -1.25 Z M 6.296875 -1.25 "/></g></g></g><g fill="#6437a0" fill-opacity="1"><g transform="translate(243.390372, 331.534646)"><g><path d="M 8.96875 -12.9375 C 10.570312 -12.9375 11.847656 -12.46875 12.796875 -11.53125 C 13.753906 -10.601562 14.234375 -9.242188 14.234375 -7.453125 L 14.234375 0 L 12.5 0 L 12.5 -7.28125 C 12.5 -8.613281 12.164062 -9.628906 11.5 -10.328125 C 10.832031 -11.023438 9.878906 -11.375 8.640625 -11.375 C 7.253906 -11.375 6.160156 -10.960938 5.359375 -10.140625 C 4.554688 -9.316406 4.15625 -8.179688 4.15625 -6.734375 L 4.15625 0 L 2.421875 0 L 2.421875 -12.84375 L 4.078125 -12.84375 L 4.078125 -10.484375 C 4.546875 -11.265625 5.195312 -11.867188 6.03125 -12.296875 C 6.875 -12.722656 7.851562 -12.9375 8.96875 -12.9375 Z M 8.96875 -12.9375 "/></g></g></g><g fill="#6437a0" fill-opacity="1"><g transform="translate(259.916295, 331.534646)"><g/></g></g><g fill="#6437a0" fill-opacity="1"><g transform="translate(266.311857, 331.534646)"><g><path d="M 20.53125 -17.09375 L 20.53125 0 L 18.8125 0 L 18.8125 -13.671875 L 12.09375 -2.171875 L 11.234375 -2.171875 L 4.515625 -13.609375 L 4.515625 0 L 2.78125 0 L 2.78125 -17.09375 L 4.28125 -17.09375 L 11.703125 -4.421875 L 19.046875 -17.09375 Z M 20.53125 -17.09375 "/></g></g></g><g fill="#6437a0" fill-opacity="1"><g transform="translate(289.623892, 331.534646)"><g><path d="M 2.421875 -12.84375 L 4.15625 -12.84375 L 4.15625 0 L 2.421875 0 Z M 3.296875 -15.65625 C 2.941406 -15.65625 2.640625 -15.773438 2.390625 -16.015625 C 2.148438 -16.265625 2.03125 -16.5625 2.03125 -16.90625 C 2.03125 -17.226562 2.148438 -17.507812 2.390625 -17.75 C 2.640625 -18 2.941406 -18.125 3.296875 -18.125 C 3.648438 -18.125 3.945312 -18.003906 4.1875 -17.765625 C 4.4375 -17.523438 4.5625 -17.242188 4.5625 -16.921875 C 4.5625 -16.566406 4.4375 -16.265625 4.1875 -16.015625 C 3.945312 -15.773438 3.648438 -15.65625 3.296875 -15.65625 Z M 3.296875 -15.65625 "/></g></g></g><g fill="#6437a0" fill-opacity="1"><g transform="translate(296.190317, 331.534646)"><g><path d="M 8.96875 -12.9375 C 10.570312 -12.9375 11.847656 -12.46875 12.796875 -11.53125 C 13.753906 -10.601562 14.234375 -9.242188 14.234375 -7.453125 L 14.234375 0 L 12.5 0 L 12.5 -7.28125 C 12.5 -8.613281 12.164062 -9.628906 11.5 -10.328125 C 10.832031 -11.023438 9.878906 -11.375 8.640625 -11.375 C 7.253906 -11.375 6.160156 -10.960938 5.359375 -10.140625 C 4.554688 -9.316406 4.15625 -8.179688 4.15625 -6.734375 L 4.15625 0 L 2.421875 0 L 2.421875 -12.84375 L 4.078125 -12.84375 L 4.078125 -10.484375 C 4.546875 -11.265625 5.195312 -11.867188 6.03125 -12.296875 C 6.875 -12.722656 7.851562 -12.9375 8.96875 -12.9375 Z M 8.96875 -12.9375 "/></g></g></g><g fill="#6437a0" fill-opacity="1"><g transform="translate(312.71624, 331.534646)"><g><path d="M 14.140625 -18.125 L 14.140625 0 L 12.484375 0 L 12.484375 -2.546875 C 11.960938 -1.679688 11.273438 -1.019531 10.421875 -0.5625 C 9.566406 -0.101562 8.597656 0.125 7.515625 0.125 C 6.316406 0.125 5.226562 -0.148438 4.25 -0.703125 C 3.269531 -1.253906 2.503906 -2.023438 1.953125 -3.015625 C 1.398438 -4.015625 1.125 -5.148438 1.125 -6.421875 C 1.125 -7.691406 1.398438 -8.820312 1.953125 -9.8125 C 2.503906 -10.8125 3.269531 -11.582031 4.25 -12.125 C 5.226562 -12.664062 6.316406 -12.9375 7.515625 -12.9375 C 8.554688 -12.9375 9.492188 -12.722656 10.328125 -12.296875 C 11.171875 -11.867188 11.863281 -11.238281 12.40625 -10.40625 L 12.40625 -18.125 Z M 7.671875 -1.421875 C 8.566406 -1.421875 9.375 -1.625 10.09375 -2.03125 C 10.820312 -2.445312 11.394531 -3.035156 11.8125 -3.796875 C 12.226562 -4.566406 12.4375 -5.441406 12.4375 -6.421875 C 12.4375 -7.398438 12.226562 -8.269531 11.8125 -9.03125 C 11.394531 -9.800781 10.820312 -10.390625 10.09375 -10.796875 C 9.375 -11.210938 8.566406 -11.421875 7.671875 -11.421875 C 6.753906 -11.421875 5.929688 -11.210938 5.203125 -10.796875 C 4.484375 -10.390625 3.914062 -9.800781 3.5 -9.03125 C 3.082031 -8.269531 2.875 -7.398438 2.875 -6.421875 C 2.875 -5.441406 3.082031 -4.566406 3.5 -3.796875 C 3.914062 -3.035156 4.484375 -2.445312 5.203125 -2.03125 C 5.929688 -1.625 6.753906 -1.421875 7.671875 -1.421875 Z M 7.671875 -1.421875 "/></g></g></g></svg>